<svg width="23" height="20" viewBox="0 0 23 20" fill="none" xmlns="http://www.w3.org/2000/svg">
<path d="M4.4355 7.136C4.48317 6.96267 4.57633 6.76767 4.715 6.551C4.85367 6.33433 5.04217 6.1285 5.2805 5.9335C5.52317 5.7385 5.81783 5.57817 6.1645 5.4525C6.5155 5.32683 6.92067 5.264 7.38 5.264C7.926 5.264 8.40917 5.36583 8.8295 5.5695C9.25417 5.76883 9.58783 6.04833 9.8305 6.408C10.0732 6.76767 10.1945 7.188 10.1945 7.669C10.1945 7.95933 10.1425 8.22583 10.0385 8.4685C9.9345 8.70683 9.80017 8.90617 9.6355 9.0665C9.47083 9.22683 9.2975 9.33083 9.1155 9.3785C9.32783 9.4045 9.54017 9.502 9.7525 9.671C9.96917 9.84 10.1512 10.0653 10.2985 10.347C10.4502 10.6287 10.526 10.9602 10.526 11.3415C10.526 11.8875 10.3873 12.3728 10.11 12.7975C9.837 13.2178 9.46217 13.5493 8.9855 13.792C8.50883 14.0347 7.96283 14.156 7.3475 14.156C6.7105 14.156 6.16883 14.0433 5.7225 13.818C5.2805 13.5927 4.92733 13.3175 4.663 12.9925C4.403 12.6675 4.22967 12.3533 4.143 12.05L5.924 11.166C5.976 11.3523 6.06267 11.5473 6.184 11.751C6.30967 11.9547 6.47 12.128 6.665 12.271C6.86 12.4097 7.08533 12.479 7.341 12.479C7.60533 12.479 7.83067 12.427 8.017 12.323C8.20333 12.219 8.34633 12.0782 8.446 11.9005C8.55 11.7185 8.602 11.5105 8.602 11.2765C8.602 11.0338 8.5435 10.8323 8.4265 10.672C8.31383 10.5117 8.16217 10.3925 7.9715 10.3145C7.78083 10.2365 7.57067 10.1975 7.341 10.1975H7.172V8.8065H7.393C7.59233 8.8065 7.77217 8.7675 7.9325 8.6895C8.09283 8.60717 8.2185 8.49233 8.3095 8.345C8.40483 8.19333 8.4525 8.01567 8.4525 7.812C8.4525 7.539 8.35933 7.30717 8.173 7.1165C7.98667 6.9215 7.71583 6.824 7.3605 6.824C7.14383 6.824 6.95317 6.863 6.7885 6.941C6.62817 7.01467 6.49383 7.11 6.3855 7.227C6.27717 7.33967 6.1905 7.45667 6.1255 7.578C6.06483 7.695 6.02583 7.79683 6.0085 7.8835L4.4355 7.136ZM11.5541 5.42H14.1346C15.049 5.42 15.8051 5.60417 16.4031 5.9725C17.0055 6.3365 17.4561 6.84133 17.7551 7.487C18.0541 8.13267 18.2036 8.8715 18.2036 9.7035C18.2036 10.5398 18.0541 11.2808 17.7551 11.9265C17.4561 12.5722 17.0055 13.0792 16.4031 13.4475C15.8051 13.8158 15.049 14 14.1346 14H11.5541V5.42ZM13.4911 7.1425V12.2775H13.9591C14.4488 12.2775 14.854 12.167 15.1746 11.946C15.4953 11.7207 15.7358 11.4152 15.8961 11.0295C16.0608 10.6395 16.1431 10.2018 16.1431 9.7165C16.1431 9.22683 16.063 8.78917 15.9026 8.4035C15.7466 8.0135 15.5061 7.70583 15.1811 7.4805C14.8561 7.25517 14.4488 7.1425 13.9591 7.1425H13.4911Z" fill="#171715"/>
<path d="M22.9173 0.881434V5.2886C22.9173 5.52237 22.8244 5.74657 22.6591 5.91187C22.4938 6.07717 22.2696 6.17004 22.0358 6.17004C21.8021 6.17004 21.5779 6.07717 21.4126 5.91187C21.2473 5.74657 21.1544 5.52237 21.1544 5.2886V1.76287H17.6287C17.3949 1.76287 17.1707 1.67 17.0054 1.5047C16.8401 1.3394 16.7472 1.1152 16.7472 0.881434C16.7472 0.647663 16.8401 0.423467 17.0054 0.258166C17.1707 0.0928653 17.3949 0 17.6287 0H22.0358C22.2696 0 22.4938 0.0928653 22.6591 0.258166C22.8244 0.423467 22.9173 0.647663 22.9173 0.881434ZM5.2886 17.6287H1.76287V14.1029C1.76287 13.8692 1.67 13.645 1.5047 13.4797C1.3394 13.3144 1.1152 13.2215 0.881434 13.2215C0.647663 13.2215 0.423467 13.3144 0.258166 13.4797C0.092865 13.645 0 13.8692 0 14.1029V18.5101C0 18.7439 0.092865 18.9681 0.258166 19.1334C0.423467 19.2987 0.647663 19.3915 0.881434 19.3915H5.2886C5.52237 19.3915 5.74657 19.2987 5.91187 19.1334C6.07717 18.9681 6.17004 18.7439 6.17004 18.5101C6.17004 18.2763 6.07717 18.0521 5.91187 17.8868C5.74657 17.7215 5.52237 17.6287 5.2886 17.6287ZM22.0358 13.2215C21.8021 13.2215 21.5779 13.3144 21.4126 13.4797C21.2473 13.645 21.1544 13.8692 21.1544 14.1029V17.6287H17.6287C17.3949 17.6287 17.1707 17.7215 17.0054 17.8868C16.8401 18.0521 16.7472 18.2763 16.7472 18.5101C16.7472 18.7439 16.8401 18.9681 17.0054 19.1334C17.1707 19.2987 17.3949 19.3915 17.6287 19.3915H22.0358C22.2696 19.3915 22.4938 19.2987 22.6591 19.1334C22.8244 18.9681 22.9173 18.7439 22.9173 18.5101V14.1029C22.9173 13.8692 22.8244 13.645 22.6591 13.4797C22.4938 13.3144 22.2696 13.2215 22.0358 13.2215ZM0.881434 6.17004C1.1152 6.17004 1.3394 6.07717 1.5047 5.91187C1.67 5.74657 1.76287 5.52237 1.76287 5.2886V1.76287H5.2886C5.52237 1.76287 5.74657 1.67 5.91187 1.5047C6.07717 1.3394 6.17004 1.1152 6.17004 0.881434C6.17004 0.647663 6.07717 0.423467 5.91187 0.258166C5.74657 0.0928653 5.52237 0 5.2886 0H0.881434C0.647663 0 0.423467 0.0928653 0.258166 0.258166C0.092865 0.423467 0 0.647663 0 0.881434V5.2886C0 5.52237 0.092865 5.74657 0.258166 5.91187C0.423467 6.07717 0.647663 6.17004 0.881434 6.17004Z" fill="#ED7534"/>
</svg>
