<svg width="62" height="62" viewBox="0 0 62 62" fill="none" xmlns="http://www.w3.org/2000/svg">
<path d="M18.0834 56.8334C16.6625 56.8334 15.4467 56.3279 14.4357 55.3169C13.4248 54.306 12.9184 53.0892 12.9167 51.6667C12.915 50.2441 13.4213 49.0282 14.4357 48.019C15.4501 47.0098 16.666 46.5035 18.0834 46.5C19.5008 46.4966 20.7175 47.0029 21.7336 48.019C22.7497 49.0351 23.2552 50.251 23.25 51.6667C23.2449 53.0824 22.7394 54.2991 21.7336 55.3169C20.7279 56.3348 19.5111 56.8402 18.0834 56.8334ZM43.9167 56.8334C42.4959 56.8334 41.28 56.3279 40.2691 55.3169C39.2581 54.306 38.7518 53.0892 38.75 51.6667C38.7483 50.2441 39.2547 49.0282 40.2691 48.019C41.2834 47.0098 42.4993 46.5035 43.9167 46.5C45.3341 46.4966 46.5509 47.0029 47.567 48.019C48.5831 49.0351 49.0885 50.251 49.0834 51.6667C49.0782 53.0824 48.5727 54.2991 47.567 55.3169C46.5612 56.3348 45.3444 56.8402 43.9167 56.8334ZM7.75005 10.3334H5.16672C4.43477 10.3334 3.82166 10.0854 3.32738 9.58935C2.83311 9.09335 2.58511 8.48024 2.58338 7.75002C2.58166 7.0198 2.82966 6.40669 3.32738 5.91069C3.82511 5.41469 4.43822 5.16669 5.16672 5.16669H9.42922C9.90283 5.16669 10.3549 5.29585 10.7855 5.55419C11.216 5.81252 11.5389 6.17849 11.7542 6.6521L22.023 28.4167H40.1063L49.4709 11.625C49.6862 11.1945 49.9875 10.8715 50.375 10.6563C50.7625 10.441 51.1931 10.3334 51.6667 10.3334C52.657 10.3334 53.4001 10.7536 53.8961 11.594C54.3921 12.4345 54.4025 13.2844 53.9271 14.1438L44.6917 30.8709C44.2181 31.732 43.5835 32.3993 42.7878 32.8729C41.9921 33.3465 41.1198 33.5834 40.1709 33.5834H20.925L18.0834 38.75H46.5C47.232 38.75 47.846 38.998 48.342 39.494C48.838 39.99 49.0851 40.6031 49.0834 41.3334C49.0817 42.0636 48.8337 42.6775 48.3394 43.1753C47.8451 43.673 47.232 43.9201 46.5 43.9167H18.0834C16.1459 43.9167 14.6708 43.0771 13.6581 41.3979C12.6455 39.7188 12.6136 38.0181 13.5625 36.2959L17.05 29.9667L7.75005 10.3334Z" fill="black"/>
<path d="M32.0925 8.32594C32.3509 8.06765 32.7012 7.92255 33.0666 7.92255C33.4319 7.92255 33.7823 8.06765 34.0407 8.32594L40.2407 14.5259C40.499 14.7843 40.6441 15.1347 40.6441 15.5C40.6441 15.8654 40.499 16.2157 40.2407 16.4741L34.0407 22.6741C33.7808 22.9251 33.4328 23.064 33.0715 23.0608C32.7103 23.0577 32.3647 22.9128 32.1093 22.6573C31.8538 22.4019 31.7089 22.0563 31.7058 21.6951C31.7026 21.3338 31.8415 20.9858 32.0925 20.7259L35.8221 16.8778H22.7332C22.3678 16.8778 22.0174 16.7326 21.759 16.4743C21.5006 16.2159 21.3555 15.8654 21.3555 15.5C21.3555 15.1346 21.5006 14.7842 21.759 14.5258C22.0174 14.2674 22.3678 14.1223 22.7332 14.1223H35.8221L32.0925 10.2741C31.8342 10.0157 31.6891 9.66537 31.6891 9.30003C31.6891 8.93469 31.8342 8.58431 32.0925 8.32594Z" fill="#ED7534"/>
</svg>
