<svg width="135" height="135" viewBox="0 0 135 135" fill="none" xmlns="http://www.w3.org/2000/svg">
<path d="M42.1874 45.0001L43.1324 33.6713C43.6416 27.5588 46.4294 21.8608 50.943 17.7076C55.4565 13.5543 61.3662 11.249 67.4999 11.249C73.6336 11.249 79.5433 13.5543 84.0569 17.7076C88.5705 21.8608 91.3583 27.5588 91.8674 33.6713L92.8124 45.0001M17.2237 85.4607L19.2768 73.8113C21.7068 60.0413 22.9162 53.1563 27.7256 49.0782C32.5349 45.0001 39.4424 45.0001 53.2518 45.0001H81.7481C95.5574 45.0001 102.465 45.0001 107.274 49.0782C112.084 53.1563 113.293 60.0413 115.723 73.8113L117.776 85.4607C121.14 104.518 122.816 114.047 117.647 120.308C112.472 126.563 102.909 126.563 83.8012 126.563H51.1987C32.0849 126.563 22.5281 126.563 17.3531 120.302C12.1781 114.041 13.8656 104.518 17.2237 85.4607Z" stroke="black" stroke-width="7.5" stroke-linecap="round" stroke-linejoin="round"/>
<path d="M84.375 61.875C83.6438 69.8231 76.3088 75.9375 67.5 75.9375C58.6912 75.9375 51.3562 69.8231 50.625 61.875" stroke="#ED7534" stroke-width="7.5" stroke-linecap="round" stroke-linejoin="round"/>
</svg>
