<svg width="662" height="142" viewBox="0 0 662 142" fill="none" xmlns="http://www.w3.org/2000/svg">
<g clip-path="url(#clip0_1488_5922)">
<path d="M80.9343 110.65H80.7834" stroke="black" stroke-miterlimit="10"/>
<path d="M180.863 10.826V10.2944C184.336 8.88553 187.779 7.37292 191.201 5.75226C194.618 4.14457 197.746 2.78321 200.599 1.66388C203.469 0.557507 205.654 0 207.166 0C208.679 0 210.394 0.587759 212.337 1.74167C214.298 2.90422 216.009 4.38226 217.469 6.17147C218.952 7.93907 219.697 9.86225 219.697 11.9237V110.78C219.697 114.09 220.451 117.098 221.96 119.825C223.468 122.53 225.062 124.592 226.751 126.031V126.563C224.355 128.257 221.546 129.968 218.297 131.71C215.048 133.452 211.889 134.908 208.825 136.062C205.749 137.216 203.202 137.804 201.164 137.804C199.823 137.804 198.126 137.168 196.07 135.911C194.032 134.679 192.231 133.175 190.675 131.407C189.111 129.618 188.335 127.963 188.335 126.45V33.9863C188.335 29.1719 187.93 24.8199 187.129 20.9303C186.345 17.0493 184.259 13.6827 180.863 10.826Z" fill="#ED7534"/>
<path d="M231.017 77.4718C231.017 72.6573 230.612 68.3053 229.811 64.4157C229.026 60.5348 226.941 57.1682 223.545 54.3115V53.7799C227.018 52.3408 230.461 50.8281 233.883 49.2377C237.3 47.63 240.428 46.2687 243.281 45.1493C246.151 44.043 248.336 43.4855 249.848 43.4855C251.361 43.4855 253.076 44.0732 255.019 45.2271C256.98 46.3897 258.69 47.8677 260.151 49.6569C261.634 51.4245 262.379 53.3261 262.379 55.3703V114.941C262.379 119.842 262.664 123.702 263.245 126.524C263.823 129.324 264.508 131.33 265.322 132.54C266.124 133.732 266.813 134.489 267.399 134.809C267.977 135.111 268.265 135.262 268.265 135.262V135.794H225.17V135.262C225.17 135.262 225.454 135.111 226.036 134.809C226.613 134.489 227.29 133.728 228.074 132.54C228.876 131.33 229.565 129.324 230.151 126.524C230.728 123.706 231.017 119.842 231.017 114.941V77.4718Z" fill="#ED7534"/>
<path d="M265.025 53.7799C268.498 52.3408 271.941 50.8281 275.363 49.2377C278.78 47.63 281.908 46.2687 284.761 45.1493C287.631 44.043 289.815 43.4855 291.328 43.4855C292.84 43.4855 294.555 44.0732 296.499 45.2271C298.46 46.3897 300.17 47.8677 301.631 49.6569C303.113 51.4245 303.859 53.3261 303.859 55.3703V68.7678C305.367 65.9197 307.142 62.9766 309.181 59.9514C311.236 56.9045 313.464 54.0306 315.86 51.3208C318.273 48.5938 320.673 46.3897 323.069 44.6999C324.323 44.3498 325.504 44.0559 326.615 43.8312C327.719 43.6022 329.029 43.4898 330.541 43.4898C335.975 43.4898 340.482 44.7215 344.089 47.159C347.683 49.6094 350.411 52.7513 352.276 56.5847C354.134 60.4268 355.116 64.5238 355.22 68.8844C356.728 66.0364 358.503 63.076 360.541 59.9903C362.597 56.9132 364.825 54.0306 367.22 51.3251C369.634 48.5981 372.034 46.394 374.43 44.7042C375.684 44.3541 376.864 44.0603 377.976 43.8355C379.079 43.6065 380.389 43.4941 381.902 43.4941C387.413 43.4941 391.985 44.7734 395.639 47.3146C399.28 49.8428 402.017 53.0971 403.827 57.0774C405.658 61.0405 406.58 65.2542 406.58 69.7185V110.78C406.58 114.09 407.334 117.098 408.842 119.825C410.351 122.53 411.945 124.592 413.634 126.031V126.563C411.238 128.257 408.429 129.968 405.18 131.71C401.931 133.452 398.772 134.908 395.708 136.062C392.631 137.216 390.085 137.804 388.047 137.804C386.706 137.804 385.009 137.168 382.953 135.911C380.915 134.679 379.114 133.175 377.558 131.407C375.994 129.618 375.218 127.963 375.218 126.45V80.5445C375.218 76.8927 374.464 73.6859 372.956 70.933C371.448 68.1627 368.737 66.7711 364.842 66.7711C362.067 66.7711 359.822 67.6398 358.085 69.3814C356.349 71.1231 355.388 72.8907 355.215 74.6799V110.784C355.215 114.094 355.969 117.102 357.478 119.829C358.986 122.535 360.58 124.596 362.269 126.035V126.567C359.873 128.261 357.064 129.972 353.815 131.714C350.566 133.456 347.407 134.912 344.343 136.066C341.267 137.22 338.72 137.808 336.682 137.808C335.341 137.808 333.644 137.173 331.588 135.915C329.55 134.683 327.749 133.179 326.193 131.412C324.629 129.622 323.853 127.967 323.853 126.455V80.5489C323.853 76.897 323.099 73.6902 321.591 70.9373C320.083 68.167 317.372 66.7754 313.477 66.7754C310.702 66.7754 308.457 67.6441 306.72 69.3858C304.984 71.1274 304.023 72.895 303.85 74.6842V114.954C303.85 119.855 304.135 123.715 304.716 126.537C305.294 129.337 305.979 131.342 306.793 132.553C307.595 133.745 308.284 134.502 308.87 134.822C309.448 135.124 309.737 135.275 309.737 135.275V135.807H266.641V135.275C266.641 135.275 266.925 135.124 267.507 134.822C268.084 134.502 268.761 133.741 269.545 132.553C270.347 131.342 271.036 129.337 271.622 126.537C272.2 123.719 272.488 119.855 272.488 114.954V77.4847C272.488 72.6703 272.083 68.3183 271.282 64.4287C270.498 60.5478 268.412 57.1811 265.016 54.3244V53.7929L265.025 53.7799Z" fill="#ED7534"/>
<path d="M413.091 92.0404C413.091 86.1628 414.306 80.3069 416.75 74.4811C419.184 68.6338 422.597 63.8755 426.975 60.215C429.888 57.7948 433.202 55.5605 436.899 53.5163C440.597 51.4721 444.221 49.7218 447.767 48.2567C451.335 46.77 454.429 45.6248 457.049 44.8123C459.66 44.0084 461.323 43.6022 462.03 43.6022C468.615 43.6022 474.419 44.9938 479.426 47.764C484.455 50.5472 488.415 54.1602 491.311 58.6246C494.198 63.0717 495.65 67.8775 495.65 73.042C495.65 77.4113 494.293 81.357 491.574 84.8879C488.876 88.4274 484.61 91.2063 478.78 93.2505C472.941 95.2947 465.318 96.3147 455.911 96.3147H445.91C448.823 100.079 452.438 103.031 456.739 105.17C461.061 107.288 465.719 108.351 470.7 108.351C475.048 108.351 478.823 107.594 482.02 106.082C485.239 104.569 488.096 102.166 490.587 98.8515C491.918 99.2102 493.116 100.33 494.172 102.218C495.249 104.089 495.797 106.268 495.797 108.766C495.797 114.397 494.172 119.419 490.927 123.827C487.682 128.244 483.274 131.697 477.72 134.195C472.152 136.693 465.908 137.942 458.966 137.942C452.748 137.942 446.862 136.749 441.308 134.385C435.74 132.021 430.854 128.706 426.626 124.471C422.399 120.236 419.081 115.352 416.664 109.824C414.268 104.297 413.078 98.3761 413.078 92.0361L413.091 92.0404ZM453.507 48.8185C450.762 48.8185 448.413 49.6051 446.448 51.1652C444.488 52.734 442.872 54.7437 441.618 57.1811C440.381 59.6316 439.476 62.216 438.899 64.9387C438.313 67.6657 438.033 70.2285 438.033 72.6228C438.033 76.7371 438.563 80.6007 439.618 84.2051C440.696 87.8181 442.221 91.094 444.186 94.0457C448.082 93.5142 451.714 92.2306 455.092 90.1864C458.488 88.1249 461.255 85.3028 463.396 81.746C465.529 78.1676 466.602 73.9323 466.602 69.0314C466.602 66.1834 466.12 63.1927 465.167 60.0637C464.232 56.9434 462.789 54.2942 460.828 52.116C458.885 49.9206 456.45 48.8229 453.507 48.8229V48.8185Z" fill="#ED7534"/>
<path d="M492.573 54.3072V53.7756C496.046 52.3365 499.489 50.8238 502.911 49.2334C506.328 47.6257 509.456 46.2644 512.309 45.145C515.179 44.0387 517.364 43.4812 518.876 43.4812C520.389 43.4812 522.104 44.0689 524.047 45.2228C526.008 46.3854 527.719 47.8634 529.179 49.6526C530.662 51.4202 531.407 53.3218 531.407 55.366V84.8101C532.915 75.8036 535.35 68.2232 538.728 62.0647C542.124 55.9149 545.938 51.2603 550.161 48.1011C554.388 44.9203 558.585 43.3342 562.765 43.3342C565.152 43.3342 567.682 44.0344 570.349 45.4173C573.008 46.8089 575.253 49.0389 577.067 52.116C578.898 55.2018 579.82 59.3636 579.82 64.6059C579.82 68.2665 579.527 70.9243 578.954 72.5925C578.368 74.2391 577.726 74.9306 577.028 74.6756C574.537 73.6903 572.159 72.9642 569.896 72.4802C567.634 71.9788 564.993 71.7239 561.972 71.7239C555.728 71.7239 550.613 72.653 546.614 74.4855C542.615 76.3006 539.491 78.6862 537.255 81.638C535.04 84.5724 533.501 87.7705 532.653 91.2496C531.821 94.7329 531.407 98.1644 531.407 101.544V114.941C531.407 119.842 531.692 123.702 532.273 126.524C532.851 129.324 533.536 131.33 534.35 132.54C535.152 133.732 535.841 134.489 536.427 134.809C537.005 135.111 537.293 135.262 537.293 135.262V135.794H494.198V135.262C494.198 135.262 494.482 135.111 495.064 134.809C495.641 134.489 496.318 133.728 497.102 132.54C497.904 131.33 498.593 129.324 499.179 126.524C499.757 123.706 500.045 119.842 500.045 114.941V77.4718C500.045 72.6574 499.64 68.3053 498.839 64.4158C498.054 60.5348 495.969 57.1682 492.573 54.3115V54.3072Z" fill="#ED7534"/>
<path d="M579.282 92.0404C579.282 86.1628 580.497 80.3069 582.94 74.4811C585.375 68.6338 588.788 63.8755 593.166 60.215C596.079 57.7948 599.392 55.5605 603.09 53.5163C606.787 51.4721 610.411 49.7218 613.957 48.2567C617.525 46.77 620.619 45.6248 623.239 44.8123C625.851 44.0084 627.514 43.6022 628.221 43.6022C634.805 43.6022 640.609 44.9938 645.617 47.764C650.645 50.5472 654.605 54.1602 657.501 58.6246C660.388 63.0717 661.841 67.8775 661.841 73.042C661.841 77.4113 660.483 81.357 657.764 84.8879C655.067 88.4274 650.8 91.2063 644.97 93.2505C639.131 95.2947 631.508 96.3147 622.102 96.3147H612.1C615.013 100.079 618.628 103.031 622.929 105.17C627.251 107.288 631.909 108.351 636.891 108.351C641.239 108.351 645.013 107.594 648.211 106.082C651.43 104.569 654.287 102.166 656.777 98.8515C658.109 99.2102 659.307 100.33 660.362 102.218C661.44 104.089 661.987 106.268 661.987 108.766C661.987 114.397 660.362 119.419 657.118 123.827C653.873 128.244 649.465 131.697 643.91 134.195C638.343 136.693 632.099 137.942 625.157 137.942C618.939 137.942 613.052 136.749 607.498 134.385C601.931 132.021 597.044 128.706 592.817 124.471C588.589 120.231 585.271 115.352 582.854 109.824C580.458 104.297 579.269 98.3761 579.269 92.0361L579.282 92.0404ZM619.697 48.8185C616.952 48.8185 614.604 49.6051 612.639 51.1652C610.678 52.734 609.062 54.7437 607.808 57.1811C606.571 59.6316 605.667 62.216 605.089 64.9387C604.503 67.6657 604.223 70.2285 604.223 72.6228C604.223 76.7371 604.753 80.6007 605.809 84.2051C606.886 87.8181 608.411 91.094 610.376 94.0457C614.272 93.5142 617.905 92.2306 621.283 90.1864C624.678 88.1249 627.445 85.3028 629.587 81.746C631.72 78.1676 632.793 73.9323 632.793 69.0314C632.793 66.1834 632.31 63.1927 631.358 60.0637C630.423 56.9434 628.979 54.2942 627.018 52.116C625.075 49.9206 622.64 48.8229 619.697 48.8229V48.8185Z" fill="#ED7534"/>
<path d="M58.4793 73.1458C56.6996 72.8779 54.8596 72.5537 52.9636 72.1604C48.5769 71.2442 44.5694 70.099 40.967 68.8543C40.8248 68.8068 40.6869 68.7592 40.5447 68.7074C40.5576 68.3184 40.5705 67.9251 40.5878 67.5362C40.9066 60.6516 42.1994 54.0307 44.3324 47.8117C44.3496 47.7641 44.3669 47.7166 44.3841 47.669C44.3884 47.6518 44.397 47.6345 44.4014 47.6172C52.0027 26.1337 69.64 9.52521 91.5175 3.27595C91.5261 3.27595 91.5304 3.27595 91.539 3.27163C99.0671 1.26201 106.164 0.713145 112.141 0.825511C112.18 0.825511 112.219 0.825511 112.257 0.825511C112.309 0.825511 112.356 0.825511 112.404 0.825511C120.845 1.01135 127.008 2.49803 128.921 2.99071L128.895 3.92853C128.636 10.8131 128.089 16.708 127.245 21.7644C127.219 21.9287 127.189 22.0929 127.163 22.2528C127.163 22.2658 127.163 22.2744 127.158 22.2874C126.801 24.3488 126.391 26.2677 125.93 28.0569C125.728 28.8348 125.517 29.5868 125.297 30.3129C125.249 30.4684 125.202 30.624 125.15 30.7796C125.15 30.7926 125.142 30.8055 125.137 30.8142C122.836 38.0575 119.484 42.4138 115.153 43.7881C113.804 44.216 112.477 44.3197 111.171 44.1771C111.124 44.1771 111.072 44.1684 111.025 44.1598C110.986 44.1555 110.947 44.1511 110.909 44.1468C106.496 43.5547 102.295 40.1838 98.1966 36.8949C96.0378 35.1619 93.8444 33.4029 91.608 32.02C91.5907 32.007 91.5735 31.9984 91.5563 31.9854C91.4571 31.9249 91.3537 31.8601 91.2546 31.8039C88.1736 29.9542 85.0107 28.8564 81.7185 29.5306C79.8828 29.9066 78.2109 30.6889 76.6854 31.7304C76.4484 31.8903 76.2114 32.0632 75.983 32.236C74.4921 33.364 73.1433 34.734 71.9368 36.2034C71.9324 36.2077 71.9238 36.2164 71.9195 36.2207C71.5963 36.614 71.2818 37.0116 70.9758 37.4178C70.9758 37.4178 70.9715 37.4222 70.9715 37.4265C66.8778 42.1891 63.633 47.7123 61.4699 53.767C61.444 53.8319 61.4225 53.8967 61.4009 53.9658C59.6988 58.7976 58.6862 63.9664 58.4922 69.3556C58.4879 69.4982 58.4836 69.6365 58.4793 69.7792V69.8224C58.4793 70.5744 58.4836 71.3263 58.4879 72.0783C58.4879 72.4327 58.4879 72.7914 58.4879 73.1458H58.4793Z" fill="#ED7534"/>
<path d="M109.215 141.983C109.379 141.983 109.538 141.991 109.702 141.991C130.317 142.333 149.057 133.745 162.196 119.747C162.213 119.73 162.23 119.713 162.248 119.695C163.92 117.872 165.436 116.018 166.815 114.151C167.345 113.433 167.854 112.716 168.345 111.998C168.345 111.994 168.354 111.99 168.358 111.985C179.027 96.3104 180.393 80.3458 180.665 75.6913C180.596 75.1381 180.484 74.3213 180.294 73.31C180.269 73.1587 180.234 73.0032 180.204 72.8432C179.204 67.8732 176.412 58.9834 168.423 53.767C166.932 52.7946 163.39 50.7245 157.727 50.0157C157.598 49.9984 157.473 49.9811 157.34 49.9682C157.301 49.9639 157.262 49.9595 157.219 49.9552C156.629 49.8904 156.017 49.8429 155.383 49.8083C152.768 49.6743 150.367 49.8688 148.122 50.3269C147.997 50.3528 147.877 50.3787 147.752 50.4047C147.717 50.4133 147.683 50.4176 147.653 50.4263C135.867 53.0496 128.313 62.9767 116.131 71.0065C115.903 71.1578 115.675 71.3047 115.446 71.4516C113.822 72.4975 112.115 73.5045 110.305 74.4596C110.258 74.4855 110.206 74.5114 110.155 74.5374C110.116 74.559 110.077 74.5763 110.038 74.5979C106.724 76.3266 103.062 77.8608 98.9335 79.0752C88.2339 82.2258 77.7239 82.3598 67.925 81.3528C67.8345 81.3441 67.7397 81.3355 67.6492 81.3225C67.6104 81.3182 67.5716 81.3139 67.5328 81.3096C64.7793 81.0157 62.0818 80.6354 59.4575 80.2075C59.3756 80.1946 59.2894 80.1816 59.2076 80.1686C59.1688 80.16 59.13 80.1557 59.0912 80.147C56.467 79.7148 53.916 79.2394 51.4468 78.7597C47.5384 77.9991 44.0954 77.3336 40.7343 76.4433C40.6697 76.426 40.6007 76.4087 40.5361 76.3914C40.4973 76.3828 40.4585 76.3698 40.4197 76.3612C37.6446 75.6178 34.9127 74.7102 32.004 73.4742C31.948 73.4526 31.8876 73.4267 31.8273 73.4008C31.7885 73.3835 31.7497 73.3662 31.711 73.3489C30.9095 73.0032 30.0907 72.6315 29.2591 72.2296C27.4923 71.3782 25.8074 70.4792 24.2131 69.5457L24.0622 69.4593C24.0235 69.4377 23.9847 69.4161 23.9502 69.3902C23.6227 69.2 23.3038 69.0055 22.985 68.811C22.7221 68.6511 22.4592 68.4869 22.2007 68.3227C13.772 63.0069 7.94606 56.8484 4.3307 52.4273C4.3307 52.4273 4.3307 52.4316 4.32639 52.4359C2.09856 57.0213 0.922168 60.993 0.383525 64.351C0.383525 64.351 0.383525 64.3596 0.383525 64.364C0.383525 64.3726 0.383525 64.3769 0.383525 64.3856C0.383525 64.3942 0.383525 64.4072 0.379216 64.4158C0.379216 64.4288 0.379216 64.4417 0.374907 64.4547C0.374907 64.4763 0.366289 64.4979 0.366289 64.5239C0.228396 65.5395 0.155141 66.5205 0.142214 67.4756C0.142214 67.5448 0.142214 67.6139 0.142214 67.6831C0.0948131 67.9899 0.0517217 68.2968 0.0129395 68.6122C0.0129395 68.9407 0.0129395 69.2605 0.0215577 69.5717C0.116359 73.2711 0.999732 75.7777 1.55992 77.1002C5.43814 86.2882 15.8102 91.0422 26.7382 93.3327C26.777 93.3413 26.8201 93.35 26.8589 93.3586C26.9494 93.3759 27.0485 93.3975 27.1605 93.4191C28.6084 93.7087 31.5644 94.2446 35.1755 94.6422C35.2143 94.6465 35.2531 94.6508 35.2919 94.6552C35.3996 94.6681 35.503 94.6768 35.6064 94.6854C38.5582 94.9879 41.4367 95.1392 44.1127 95.1911C44.1816 95.1911 44.2678 95.1911 44.3755 95.1954C44.41 95.1954 44.4488 95.1954 44.4876 95.1954C44.5091 95.1954 44.535 95.1954 44.5608 95.1954C44.5867 95.1954 44.6168 95.1954 44.647 95.1954C44.6772 95.1954 44.703 95.1954 44.7332 95.1954C44.759 95.1954 44.7892 95.1954 44.8194 95.1954C44.8452 95.1954 44.8711 95.1954 44.8969 95.1954C45.2891 95.1954 45.6769 95.1997 46.0561 95.1997C46.1854 95.1997 46.3189 95.1997 46.4611 95.1997C46.5085 95.1997 46.5603 95.1997 46.6077 95.1997C46.8576 95.1997 47.1248 95.1954 47.4048 95.1911C47.4609 95.1911 47.5126 95.1911 47.5686 95.1911C47.672 95.1911 47.7754 95.1867 47.8788 95.1867C47.978 95.1867 48.0771 95.1824 48.1762 95.1781C48.5942 95.1694 49.038 95.1522 49.5034 95.1349C49.7232 95.1262 49.9472 95.1176 50.1756 95.1089C50.3135 95.1003 50.4514 95.096 50.5936 95.0917C50.6065 95.0917 50.6152 95.0917 50.6281 95.0917C50.6626 95.0917 50.6927 95.0917 50.7272 95.0873C50.8952 95.0787 51.0676 95.07 51.2443 95.0614C52.0027 95.0225 52.8042 94.9706 53.6488 94.9058C56.6092 94.6508 59.4834 94.2965 62.2326 93.8729C62.2972 93.8643 62.3662 93.8513 62.4265 93.8427C62.5041 93.8297 62.5773 93.8211 62.6549 93.8081C62.754 93.7908 62.8531 93.7778 62.9479 93.7606C62.9824 93.7562 63.0212 93.7519 63.0556 93.7433C63.1677 93.726 63.2797 93.7087 63.3917 93.6871C63.4004 93.6871 63.409 93.6871 63.4176 93.6871C63.4521 93.6828 63.4865 93.6784 63.521 93.6698C63.6374 93.6482 63.758 93.6309 63.8744 93.6136C66.6107 93.1598 69.2134 92.6499 71.6308 92.114C71.6653 92.1053 71.6998 92.0967 71.7299 92.0924C71.8549 92.0664 71.9755 92.0362 72.0962 92.0102C76.9698 90.9168 81.0808 89.75 84.067 88.8251C99.4075 84.0712 107.22 81.759 109.853 81.3787C109.892 81.3744 109.93 81.3701 109.969 81.3614C110.017 81.3528 110.068 81.3485 110.116 81.3441C117.114 80.4409 126.06 79.3259 133.058 84.6892C133.717 85.1948 135.419 86.5086 137.052 88.6306C138.422 90.4069 139.741 92.7536 140.362 95.6578C140.814 97.7928 140.801 99.8931 140.439 101.907C140.426 101.985 140.413 102.058 140.4 102.132C140.392 102.179 140.383 102.231 140.375 102.279C139.009 109.107 133.691 114.941 129.033 118.006C124.319 121.109 119.781 121.735 114.994 122.336C113.623 122.505 112.232 122.621 110.822 122.677C110.202 122.703 109.573 122.716 108.944 122.721V122.66C108.918 122.66 108.888 122.66 108.862 122.66C91.3968 122.159 76.1985 113.031 67.2183 99.461C67.1062 99.4826 66.9899 99.4998 66.8778 99.5215C66.7486 99.5431 66.6193 99.5647 66.49 99.5863C60.8235 100.533 54.2047 101.194 47.3747 101.285C47.4479 101.436 47.5212 101.587 47.5944 101.739C47.4695 101.739 47.3402 101.739 47.2152 101.743C58.1518 124.7 81.1023 140.911 108.134 141.957C108.172 141.957 108.211 141.957 108.25 141.961H108.396C108.547 141.97 108.702 141.978 108.853 141.983C108.978 141.983 109.103 141.991 109.228 141.991L109.215 141.983ZM173.732 70.4749L174.085 70.678V70.691C173.969 70.6175 173.848 70.5484 173.732 70.4749Z" fill="#ED7534"/>
</g>
<defs>
<clipPath id="clip0_1488_5922">
<rect width="662" height="142" fill="white"/>
</clipPath>
</defs>
</svg>
