<svg viewBox="0 0 55 43" fill="none" xmlns="http://www.w3.org/2000/svg"
  xmlns:anim="http://www.w3.org/2000/anim" anim="" anim:transform-origin="50% 50%" anim:duration="1"
  anim:ease="ease-in-out">
  <g id="Glimere Logo" clip-path="url(#clip0_1480_5905)">
    <g id="Layer 1">
      <g id="Group">
        <path id="Vector"
          d="M17.8027 22.0294C17.2613 21.9484 16.7008 21.8495 16.1237 21.7289C14.7879 21.4503 13.5681 21.1008 12.4713 20.7223C12.4282 20.7074 12.3855 20.6928 12.3428 20.6776C12.3464 20.5584 12.3511 20.4396 12.3565 20.3212C12.4532 18.2239 12.8472 16.2084 13.4964 14.3146C13.5014 14.3001 13.5065 14.2852 13.5116 14.271C13.5134 14.2656 13.5156 14.2601 13.5174 14.2547C15.8318 7.7119 21.2012 2.6535 27.8617 0.750244C27.8639 0.749518 27.8661 0.748791 27.8683 0.748791C30.1595 0.136654 32.3201 -0.0300945 34.1392 0.0044177C34.1508 0.0044177 34.1627 0.0044177 34.1743 0.00514427C34.1895 0.00550756 34.2044 0.00550756 34.2192 0.00623413C36.7893 0.0621802 38.6656 0.515925 39.2479 0.665598L39.2399 0.951141C39.161 3.0473 38.9951 4.84303 38.737 6.38263C38.7286 6.43277 38.7199 6.48217 38.7116 6.53158C38.7113 6.53521 38.7105 6.53848 38.7098 6.54212C38.6008 7.16987 38.4766 7.75476 38.3361 8.29933C38.2749 8.53692 38.2105 8.76579 38.1428 8.9863C38.1283 9.03426 38.1138 9.08112 38.0986 9.12835C38.0975 9.13235 38.0964 9.13561 38.095 9.13961C37.394 11.3451 36.3736 12.6729 35.0556 13.0907C34.645 13.2208 34.2413 13.2527 33.8434 13.2084C33.8282 13.2073 33.8137 13.2055 33.7985 13.2037C33.7869 13.2022 33.775 13.2008 33.7634 13.1993C32.4197 13.0184 31.1411 11.9918 29.893 10.9909C29.2351 10.4631 28.5682 9.92721 27.8874 9.5058C27.882 9.50253 27.8766 9.49926 27.8712 9.49599C27.8404 9.4771 27.8096 9.45821 27.7788 9.44005C26.841 8.87695 25.8772 8.54164 24.8756 8.74762C24.3169 8.86242 23.8075 9.10001 23.3429 9.41752C23.2701 9.46693 23.1988 9.51852 23.1286 9.57156C22.6741 9.91523 22.2646 10.3323 21.8964 10.7795C21.8946 10.7813 21.8928 10.7831 21.8913 10.7853C21.7928 10.9048 21.6972 11.0265 21.6045 11.1493C21.6038 11.15 21.6031 11.1511 21.6027 11.1519C20.3568 12.6028 19.3679 14.2848 18.7104 16.1285C18.7032 16.1485 18.6963 16.1685 18.6894 16.1888C18.1705 17.6608 17.8631 19.2346 17.8034 20.8756C17.8016 20.9184 17.8001 20.9613 17.799 21.0045V21.0176C17.7994 21.2465 17.8005 21.4754 17.8012 21.7042C17.8016 21.8128 17.8019 21.9211 17.8023 22.0297L17.8027 22.0294Z"
          fill="#ED7534" anim:opacity="0[0:0.2:1:ease-in-out][0.8:1:0:ease-in-out]"></path>
        <path id="Vector_2"
          d="M33.2493 42.9942C33.2989 42.9953 33.3481 42.9964 33.3977 42.9971C39.6737 43.1018 45.3791 40.4854 49.3791 36.2229C49.3845 36.2175 49.3892 36.2124 49.3943 36.2069C49.9026 35.6518 50.365 35.0869 50.7847 34.5184C50.9458 34.3004 51.1008 34.0814 51.25 33.8627C51.251 33.8612 51.2521 33.8594 51.2532 33.8583C54.5018 29.0844 54.9175 24.2221 54.9997 22.8049C54.9787 22.6371 54.9447 22.3879 54.8867 22.0802C54.878 22.0337 54.8686 21.9865 54.8592 21.9374C54.5551 20.4243 53.7053 17.716 51.2724 16.1281C50.8187 15.832 49.7401 15.2021 48.0165 14.9852C47.9778 14.9801 47.9387 14.975 47.8989 14.971C47.8865 14.9696 47.8746 14.9681 47.8623 14.9667C47.6827 14.9471 47.4966 14.9318 47.3036 14.922C46.5074 14.8817 45.7767 14.9405 45.0927 15.08C45.0554 15.0877 45.0177 15.096 44.9805 15.104C44.9703 15.1062 44.9598 15.1084 44.9497 15.1109C41.3614 15.9101 39.0622 18.9338 35.3541 21.3783C35.2849 21.4237 35.2157 21.4691 35.1455 21.5142C34.6513 21.8324 34.132 22.1398 33.5806 22.4297C33.5657 22.4377 33.5501 22.4457 33.5349 22.4537C33.523 22.4602 33.5114 22.466 33.4995 22.4722C32.49 22.9982 31.3755 23.4654 30.119 23.8356C26.8617 24.7954 23.6616 24.8357 20.6784 24.5287C20.6505 24.5258 20.6219 24.5229 20.594 24.52C20.5821 24.5186 20.5701 24.5175 20.5582 24.516C19.7196 24.4267 18.8987 24.3111 18.0996 24.1804C18.0743 24.1764 18.0486 24.1724 18.0232 24.168C18.0113 24.1658 17.9993 24.164 17.9877 24.1622C17.1893 24.0307 16.4127 23.8857 15.6606 23.7393C14.4701 23.5079 13.4229 23.3045 12.3993 23.0331C12.379 23.028 12.3588 23.0229 12.3388 23.0171C12.3269 23.0138 12.3153 23.0109 12.3034 23.0073C11.4586 22.7806 10.6269 22.5052 9.74125 22.1274C9.72351 22.1202 9.7054 22.1122 9.68766 22.1049C9.67571 22.0998 9.66412 22.0947 9.65217 22.0893C9.40813 21.9843 9.15938 21.8709 8.90519 21.7485C8.36677 21.4895 7.85515 21.2156 7.36923 20.9308L7.3236 20.9042C7.31238 20.8977 7.30043 20.8908 7.28921 20.8835C7.19 20.8258 7.09187 20.7666 6.99556 20.7073C6.91517 20.6583 6.83551 20.6082 6.75658 20.5584C4.19012 18.9392 2.41663 17.0639 1.31698 15.718C1.31661 15.7191 1.31625 15.7198 1.31553 15.7209C0.637704 17.1177 0.278878 18.3267 0.115215 19.349C0.115215 19.349 0.114853 19.3519 0.114853 19.353C0.114491 19.3552 0.114129 19.3577 0.114129 19.3595C0.113767 19.3628 0.113405 19.3661 0.112681 19.3694C0.112319 19.3733 0.111232 19.3773 0.11087 19.3813C0.109784 19.3882 0.108698 19.3951 0.107974 19.402C0.0663339 19.7108 0.0435225 20.0109 0.0402638 20.3012C0.0402638 20.3223 0.0402638 20.3433 0.0402638 20.3648V20.3658C0.0265045 20.4581 0.0131074 20.5515 0.00115856 20.6481C7.23098e-05 20.748 0.00115857 20.8457 0.00333108 20.9409C0.0319358 22.0682 0.301327 22.8311 0.471145 23.2333C1.65154 26.0309 4.80892 27.4801 8.13685 28.1769C8.14916 28.1794 8.16147 28.1823 8.17378 28.1845C8.20166 28.1903 8.23208 28.1965 8.26539 28.203C8.70605 28.2917 9.60547 28.4548 10.7051 28.575C10.7171 28.5765 10.729 28.5776 10.7413 28.579C10.7736 28.5823 10.8054 28.5859 10.8376 28.5888C11.7367 28.6804 12.6126 28.7272 13.4269 28.7421C13.4472 28.7421 13.4747 28.7432 13.5073 28.7436C13.5182 28.7436 13.5301 28.7436 13.5421 28.7443C13.5489 28.7443 13.5565 28.7447 13.5641 28.7443C13.5725 28.7443 13.5815 28.7443 13.5902 28.7447C13.5989 28.745 13.6076 28.7447 13.6166 28.745C13.625 28.745 13.634 28.745 13.6427 28.7454C13.6503 28.7454 13.6586 28.7454 13.6666 28.7454C13.7861 28.7465 13.9034 28.7469 14.0196 28.7472C14.0591 28.7472 14.1 28.7472 14.1424 28.7472C14.1572 28.7472 14.1721 28.7472 14.1873 28.7472C14.2633 28.7465 14.3444 28.7458 14.4299 28.7447C14.4465 28.7447 14.4628 28.7443 14.4795 28.744C14.5103 28.7432 14.5421 28.7425 14.574 28.7421C14.6037 28.7414 14.6341 28.7407 14.6649 28.7403C14.7916 28.7374 14.9267 28.7331 15.0686 28.7276C15.1349 28.7254 15.2037 28.7222 15.2732 28.7192C15.3152 28.7174 15.3572 28.7156 15.4003 28.7134C15.4039 28.7134 15.4068 28.7134 15.4101 28.7131C15.4202 28.7127 15.43 28.712 15.4405 28.7116C15.4922 28.7091 15.5444 28.7065 15.5976 28.7033C15.8286 28.6909 16.073 28.6753 16.3294 28.6557C17.2306 28.5783 18.1058 28.4693 18.9433 28.3414C18.9636 28.3385 18.9835 28.3353 19.003 28.3323C19.0266 28.3287 19.0497 28.3251 19.0725 28.3218C19.103 28.3171 19.1326 28.3127 19.1613 28.3076C19.1721 28.3058 19.183 28.3044 19.1938 28.3026C19.2279 28.2971 19.2623 28.2917 19.2963 28.2858C19.2988 28.2858 19.3014 28.2848 19.3036 28.2848C19.3141 28.2833 19.3249 28.2815 19.3358 28.2797C19.3716 28.2735 19.4078 28.268 19.4437 28.2619C20.2768 28.1242 21.0687 27.9683 21.8048 27.8056C21.815 27.803 21.8255 27.8009 21.8356 27.7987C21.8729 27.7903 21.9102 27.782 21.9471 27.7736C23.4302 27.4412 24.682 27.0856 25.5919 26.8036C30.2621 25.3563 32.641 24.6512 33.4422 24.5356C33.4542 24.5342 33.4661 24.5324 33.4774 24.5309C33.4922 24.5287 33.5074 24.5273 33.5226 24.5251C35.6531 24.2494 38.3764 23.9101 40.5065 25.5438C40.7071 25.6974 41.2249 26.0981 41.7221 26.7437C42.1392 27.285 42.5411 27.9989 42.729 28.8838C42.867 29.5341 42.8633 30.1731 42.7533 30.7871C42.7496 30.8103 42.7457 30.8325 42.7413 30.855C42.7388 30.8699 42.7359 30.8848 42.733 30.8997C42.317 32.9788 40.6984 34.756 39.2805 35.6896C37.8456 36.6342 36.4635 36.826 35.0061 37.008C34.5897 37.0599 34.1653 37.0944 33.7363 37.1119C33.5469 37.1195 33.3561 37.1239 33.1642 37.1246V37.1064C33.1562 37.1064 33.1475 37.1064 33.1392 37.1061C27.822 36.9539 23.1952 34.1733 20.4619 30.0405C20.4271 30.0467 20.3927 30.0525 20.3576 30.0587C20.3185 30.0652 20.2794 30.0718 20.2399 30.0787C18.5153 30.3675 16.4992 30.5684 14.4205 30.5963C14.4426 30.6428 14.465 30.689 14.4875 30.7351C14.4487 30.7362 14.4103 30.7366 14.3716 30.7369C17.7017 37.7284 24.6881 42.6662 32.9172 42.9848C32.9288 42.9848 32.9408 42.9859 32.9523 42.9862L32.9972 42.9877C33.0436 42.9895 33.0903 42.9909 33.1366 42.9924C33.175 42.9935 33.2127 42.9946 33.2511 42.9953L33.2493 42.9942ZM52.8902 21.2163L52.9981 21.2777V21.2821C52.9626 21.2599 52.9264 21.2381 52.8902 21.2167V21.2163Z"
          fill="#ED7534" anim:opacity="0[0.2:0.4:1:ease-in-out][0.6:0.8:0:ease-in-out]"></path>
      </g>
    </g>
  </g>
  <defs>
    <clipPath id="clip0_1480_5905">
      <rect width="55" height="43" fill="white"></rect>
    </clipPath>
  </defs>
</svg>