<svg width="128" height="128" viewBox="0 0 128 128" fill="none" xmlns="http://www.w3.org/2000/svg">
    <g clip-path="url(#clip0_1496_5966)">
        <path
            d="M44.7159 65.1278C44.086 65.0317 43.4337 64.9145 42.7621 64.7715C41.2078 64.441 39.7883 64.0265 38.5121 63.5775C38.462 63.5599 38.4123 63.5426 38.3625 63.5245C38.3668 63.3832 38.3722 63.2423 38.3786 63.1019C38.4911 60.6144 38.9495 58.2239 39.7049 55.9778C39.7108 55.9605 39.7167 55.9429 39.7226 55.9261C39.7247 55.9196 39.7273 55.9132 39.7294 55.9067C42.4225 48.1466 48.6705 42.1472 56.421 39.8898C56.4235 39.8889 56.426 39.8881 56.4286 39.8881C59.0948 39.1621 61.6089 38.9643 63.7257 39.0052C63.7392 39.0052 63.7531 39.0052 63.7665 39.0061C63.7842 39.0065 63.8015 39.0065 63.8188 39.0074C66.8094 39.0737 68.9928 39.6119 69.6703 39.7894L69.661 40.1281C69.5692 42.6142 69.3762 44.744 69.0758 46.5701C69.0661 46.6295 69.056 46.6881 69.0463 46.7467C69.0459 46.751 69.045 46.7549 69.0442 46.7592C68.9174 47.5038 68.7729 48.1975 68.6094 48.8434C68.5382 49.1252 68.4632 49.3966 68.3844 49.6582C68.3675 49.715 68.3507 49.7706 68.333 49.8266C68.3317 49.8314 68.3304 49.8352 68.3288 49.84C67.5131 52.4558 66.3257 54.0307 64.7921 54.5262C64.3143 54.6804 63.8445 54.7183 63.3814 54.6658C63.3637 54.6645 63.3469 54.6623 63.3292 54.6602C63.3157 54.6584 63.3018 54.6567 63.2883 54.655C61.7248 54.4404 60.237 53.2228 58.7847 52.0357C58.0191 51.4097 57.243 50.7741 56.4509 50.2743C56.4446 50.2704 56.4383 50.2665 56.4319 50.2627C56.3961 50.2403 56.3603 50.2179 56.3245 50.1963C55.2332 49.5285 54.1116 49.1308 52.9462 49.3751C52.2961 49.5112 51.7033 49.793 51.1627 50.1696C51.078 50.2282 50.995 50.2894 50.9133 50.3523C50.3845 50.7599 49.908 51.2545 49.4795 51.7849C49.4774 51.7871 49.4753 51.7893 49.4736 51.7918C49.359 51.9336 49.2477 52.0779 49.1399 52.2236C49.139 52.2244 49.1382 52.2257 49.1378 52.2266C47.688 53.9475 46.5373 55.9425 45.7722 58.1291C45.7637 58.1528 45.7557 58.1765 45.7477 58.2007C45.1439 59.9466 44.7862 61.8131 44.7167 63.7594C44.7146 63.8102 44.7129 63.8611 44.7117 63.9123V63.9278C44.7121 64.1993 44.7133 64.4707 44.7142 64.7422C44.7146 64.871 44.715 64.9994 44.7154 65.1283L44.7159 65.1278Z"
            fill="#ED7534" />
        <path
            d="M62.6902 89.9932C62.7479 89.9945 62.8052 89.9958 62.8629 89.9966C70.1659 90.1207 76.8049 87.0176 81.4594 81.9621C81.4657 81.9557 81.4712 81.9496 81.4771 81.9432C82.0686 81.2848 82.6067 80.6148 83.095 79.9405C83.2825 79.6819 83.4628 79.4221 83.6364 79.1627C83.6377 79.161 83.639 79.1589 83.6402 79.1576C87.4204 73.4954 87.9041 67.7286 87.9998 66.0478C87.9753 65.8487 87.9357 65.5531 87.8683 65.1882C87.8582 65.133 87.8473 65.077 87.8363 65.0189C87.4824 63.2243 86.4935 60.0121 83.6626 58.1287C83.1346 57.7776 81.8795 57.0305 79.8739 56.7732C79.8288 56.7672 79.7833 56.7612 79.737 56.7564C79.7226 56.7547 79.7087 56.753 79.6944 56.7512C79.4854 56.728 79.2689 56.7099 79.0443 56.6982C78.1178 56.6504 77.2675 56.7202 76.4716 56.8857C76.4282 56.8947 76.3844 56.9046 76.341 56.9141C76.3292 56.9167 76.317 56.9193 76.3052 56.9223C72.1298 57.8702 69.4543 61.4564 65.1394 64.3557C65.0589 64.4096 64.9784 64.4635 64.8967 64.5169C64.3216 64.8943 63.7174 65.2589 63.0757 65.6027C63.0584 65.6122 63.0403 65.6217 63.0226 65.6311C63.0087 65.6389 62.9952 65.6458 62.9813 65.6531C61.8066 66.277 60.5098 66.8311 59.0477 67.2702C55.2574 68.4085 51.5336 68.4564 48.0622 68.0923C48.0298 68.0888 47.9965 68.0854 47.9641 68.0819C47.9502 68.0802 47.9363 68.0789 47.9224 68.0772C46.9466 67.9712 45.9914 67.8342 45.0615 67.6791C45.032 67.6743 45.0021 67.6696 44.9726 67.6644C44.9587 67.6618 44.9448 67.6597 44.9313 67.6575C44.0023 67.5016 43.0985 67.3296 42.2234 67.156C40.838 66.8815 39.6195 66.6402 38.4284 66.3184C38.4048 66.3123 38.3812 66.3063 38.3581 66.2994C38.3441 66.2955 38.3307 66.2921 38.3168 66.2878C37.3338 66.0189 36.366 65.6923 35.3354 65.2442C35.3147 65.2356 35.2937 65.2261 35.273 65.2175C35.2591 65.2115 35.2456 65.2054 35.2317 65.199C34.9478 65.0744 34.6583 64.94 34.3625 64.7948C33.736 64.4876 33.1407 64.1627 32.5752 63.8249L32.5221 63.7935C32.5091 63.7857 32.4952 63.7775 32.4821 63.7689C32.3667 63.7004 32.2525 63.6302 32.1404 63.5599C32.0469 63.5018 31.9542 63.4423 31.8623 63.3833C28.8759 61.4629 26.8122 59.2387 25.5326 57.6423C25.5322 57.6436 25.5318 57.6444 25.5309 57.6457C24.7422 59.3025 24.3246 60.7364 24.1342 61.9489C24.1342 61.9489 24.1338 61.9523 24.1338 61.9536C24.1334 61.9562 24.1329 61.9592 24.1329 61.9614C24.1325 61.9653 24.1321 61.9691 24.1312 61.973C24.1308 61.9777 24.1296 61.9825 24.1291 61.9872C24.1279 61.9954 24.1266 62.0036 24.1258 62.0118C24.0773 62.378 24.0508 62.7339 24.047 63.0782C24.047 63.1032 24.047 63.1282 24.047 63.1536V63.1549C24.031 63.2643 24.0154 63.3751 24.0015 63.4897C24.0002 63.6082 24.0015 63.7241 24.004 63.837C24.0373 65.174 24.3508 66.0788 24.5484 66.5558C25.9219 69.874 29.596 71.5927 33.4685 72.4191C33.4828 72.4221 33.4971 72.4256 33.5114 72.4282C33.5439 72.4351 33.5793 72.4424 33.618 72.4501C34.1308 72.5553 35.1774 72.7487 36.457 72.8914C36.4709 72.8931 36.4848 72.8944 36.4991 72.8961C36.5366 72.9 36.5737 72.9043 36.6112 72.9077C37.6574 73.0163 38.6766 73.0719 39.6242 73.0896C39.6478 73.0896 39.6798 73.0909 39.7177 73.0913C39.7303 73.0913 39.7442 73.0913 39.7582 73.0922C39.7662 73.0922 39.775 73.0926 39.7839 73.0922C39.7935 73.0922 39.8041 73.0922 39.8142 73.0926C39.8243 73.093 39.8344 73.0926 39.8449 73.093C39.8546 73.093 39.8652 73.093 39.8753 73.0934C39.8841 73.0934 39.8938 73.0934 39.9031 73.0934C40.0421 73.0947 40.1786 73.0952 40.3139 73.0956C40.3598 73.0956 40.4074 73.0956 40.4567 73.0956C40.474 73.0956 40.4913 73.0956 40.509 73.0956C40.5975 73.0947 40.6918 73.0939 40.7913 73.0926C40.8106 73.0926 40.8296 73.0922 40.849 73.0917C40.8848 73.0909 40.9219 73.09 40.959 73.0896C40.9935 73.0887 41.0289 73.0878 41.0647 73.0874C41.2122 73.084 41.3693 73.0788 41.5345 73.0723C41.6116 73.0697 41.6917 73.0659 41.7726 73.0624C41.8214 73.0603 41.8703 73.0581 41.9204 73.0555C41.9247 73.0555 41.928 73.0555 41.9318 73.0551C41.9436 73.0547 41.955 73.0538 41.9672 73.0534C42.0275 73.0504 42.0881 73.0473 42.1501 73.0435C42.4189 73.0288 42.7033 73.0103 43.0016 72.987C44.0503 72.8952 45.0687 72.766 46.0432 72.6143C46.0668 72.6109 46.09 72.607 46.1127 72.6035C46.1401 72.5992 46.1671 72.5949 46.1936 72.591C46.229 72.5854 46.2636 72.5803 46.2969 72.5742C46.3095 72.5721 46.3221 72.5704 46.3348 72.5682C46.3744 72.5617 46.4144 72.5553 46.454 72.5484C46.457 72.5484 46.4599 72.5471 46.4624 72.5471C46.4747 72.5454 46.4873 72.5432 46.4999 72.5411C46.5416 72.5337 46.5838 72.5273 46.6255 72.52C47.595 72.3566 48.5164 72.1718 49.373 71.9788C49.3848 71.9758 49.397 71.9732 49.4088 71.9706C49.4522 71.9607 49.4956 71.9508 49.5386 71.9409C51.2644 71.5466 52.721 71.1248 53.7798 70.7904C59.2141 69.0738 61.9823 68.2375 62.9147 68.1005C62.9286 68.0987 62.9425 68.0966 62.9556 68.0949C62.9729 68.0923 62.9906 68.0906 63.0083 68.088C65.4874 67.7609 68.6563 67.3585 71.135 69.2961C71.3684 69.4784 71.9709 69.9537 72.5494 70.7193C73.0348 71.3613 73.5025 72.208 73.7211 73.2576C73.8817 74.0289 73.8775 74.7868 73.7494 75.515C73.7452 75.5425 73.7405 75.5688 73.7355 75.5955C73.7325 75.6132 73.7292 75.6309 73.7258 75.6485C73.2417 78.1144 71.3583 80.2223 69.7084 81.3296C68.0386 82.4499 66.4304 82.6774 64.7345 82.8932C64.2499 82.9549 63.7561 82.9958 63.2569 83.0165C63.0365 83.0255 62.8145 83.0307 62.5912 83.0316V83.01C62.5819 83.01 62.5718 83.01 62.5621 83.0096C56.3748 82.8291 50.9909 79.5311 47.8103 74.6295C47.7698 74.6368 47.7298 74.6437 47.6889 74.6511C47.6434 74.6588 47.5979 74.6666 47.552 74.6748C45.5452 75.0173 43.1992 75.2556 40.7803 75.2887C40.806 75.3439 40.8321 75.3986 40.8583 75.4533C40.8132 75.4546 40.7685 75.4551 40.7234 75.4555C44.5985 83.7477 52.7281 89.6041 62.3038 89.982C62.3173 89.982 62.3312 89.9833 62.3447 89.9837L62.3969 89.9854C62.4508 89.9876 62.5052 89.9893 62.5591 89.991C62.6038 89.9923 62.6476 89.9936 62.6923 89.9945L62.6902 89.9932ZM85.5451 64.1636L85.6706 64.2364V64.2416C85.6293 64.2153 85.5872 64.1894 85.5451 64.164V64.1636Z"
            fill="#ED7534" />
    </g>
    <circle cx="64" cy="64" r="62" stroke="black" stroke-width="4" />
    <path d="M61.5 2C111.5 1.99999 126 44 126 62" stroke="#ED7534" stroke-width="4"
        stroke-linecap="round" />
    <defs>
        <clipPath id="clip0_1496_5966">
            <rect width="64" height="51" fill="white" transform="translate(24 39)" />
        </clipPath>
    </defs>
</svg>