<?xml version="1.0" encoding="UTF-8"?>
<svg xmlns="http://www.w3.org/2000/svg" viewBox="0 0 1583.22 512.95">
    <g id="a" />
    <g id="b">
        <g id="c">
            <g>
                <path
                    d="M412.9,137.15c-.05-8.68-.94-17.33-2.66-25.84-1.04-5.69-2.7-11.25-4.94-16.58-4.96-12.5-17.35-20.44-30.78-19.72v-6.65c8.78-.02,17.51,1.23,25.92,3.7,6.97,2.07,13.58,5.19,19.61,9.25,7.11,4.92,12.97,11.44,17.11,19.03,6.06,11.31,9.15,23.98,8.98,36.81v219.34c0,12.36,5.16,24.16,14.25,32.55l1.33,1.22h-64.37l1.33-1.22c9.08-8.39,14.25-20.19,14.25-32.55l-.02-219.35Z"
                    fill="currentColor" />
                <path
                    d="M917.87,262.71v-.35c-.07-38.47-10.6-67.78-36.74-67.78-17.49,.29-34.22,7.2-46.82,19.34-9.64,8.86-18.06,18.96-25.02,30.05,.84,6.21,1.29,12.46,1.33,18.73v93.81c0,12.36,5.16,24.16,14.25,32.55l1.33,1.22h-64.37l1.33-1.22c9.08-8.39,14.25-20.19,14.25-32.55v-94.38c-.1-38.35-10.65-67.55-36.73-67.55-17.49,.29-34.22,7.2-46.81,19.33-9.32,8.56-17.5,18.29-24.33,28.94,.37,3.22,.58,6.45,.63,9.69v103.92c0,12.36,5.17,24.16,14.25,32.55l1.33,1.22h-64.37l1.33-1.22c9.08-8.39,14.25-20.19,14.25-32.55v-103.97c-.05-8.68-.94-17.33-2.66-25.84-1.04-5.69-2.7-11.25-4.94-16.58-4.96-12.5-17.35-20.44-30.78-19.72v-6.65c8.77-.01,17.5,1.23,25.92,3.7,6.97,2.07,13.58,5.19,19.61,9.25,7.11,4.92,12.97,11.44,17.12,19.03,3.1,5.59,5.38,11.6,6.76,17.84,17.34-24.65,45.74-49.82,77.72-49.82,5.07-.11,10.13,.24,15.14,1.04,4.33,.77,8.55,2.07,12.56,3.88,7.17,3.35,13.55,8.18,18.72,14.18,7.79,9.14,13.13,20.11,15.54,31.87,17.26-25,46.05-50.95,78.51-50.95,5.07-.11,10.14,.24,15.14,1.04,4.33,.77,8.55,2.07,12.56,3.88,7.17,3.35,13.55,8.18,18.72,14.18,10.31,11.9,18.21,29.14,18.54,59.87v93.81c0,12.36,5.17,24.16,14.25,32.55l1.33,1.22h-64.37l1.33-1.22c9.08-8.39,14.25-20.19,14.25-32.55v-93.81h-.04Z"
                    fill="currentColor" />
                <path
                    d="M1196.74,332.27l-.98,3.17c-.17,.53-17.05,52.12-89.71,53.67v.06h-6.65v-.11c-2.07-.07-4.12-.21-6.15-.45-9.83-.98-19.48-3.2-28.75-6.61-9.75-3.48-18.94-8.34-27.3-14.43-9.94-7.14-18.28-16.27-24.5-26.81-19.04-33.31-19.04-74.2,0-107.51,6.22-10.54,14.57-19.66,24.5-26.8,8.36-6.1,17.55-10.96,27.3-14.44,9.25-3.41,18.91-5.63,28.73-6.62,3.15-.37,6.32-.56,9.49-.56h3.31v.07c12.57,.47,24.97,3.06,36.68,7.66,23.21,8.8,41.18,27.65,48.86,51.26,.62,1.9,1.19,3.85,1.68,5.84,.09,.26,.13,.53,.13,.8h-156.07c-3.64,11.84-5.56,24.14-5.71,36.52,.14,13.98,2.57,27.85,7.2,41.05,3.1,8.98,7.3,17.54,12.52,25.48,4.66,7.43,10.78,13.84,18,18.82,8.27,5.57,17.83,8.96,27.77,9.84,1.86,.14,3.7,.32,5.59,.32h.62c69.89-.28,85.44-47.06,86.06-49.06l1-3.16,6.37,1.97Zm-145.47-111.73c-4.76,7.3-8.67,15.12-11.65,23.31h122.3c-.83-6.01-2.63-11.85-5.36-17.28-4.61-9.23-11.37-17.22-19.71-23.3-9.8-7.4-21.68-11.52-33.96-11.78h-.32l-.61,.04c-11.74,.1-23.19,3.67-32.9,10.26-7.14,4.98-13.2,11.36-17.8,18.75h0Z"
                    fill="currentColor" />
                <path
                    d="M1366.97,203.26c.12,2.82-.84,5.58-2.7,7.71-2.49,3-5.36,5.65-8.55,7.89-2.12,1.59-4.53,2.76-7.09,3.46-.13,.04-.27,.04-.35,.09-.94,.21-1.92,.17-2.83-.13h-.04c-.41-.17-.78-.41-1.11-.71-4.2-5.53-10.77-8.75-17.72-8.68-8.84,.43-17.3,3.69-24.14,9.3-8.12,6.28-14.51,14.53-18.56,23.97,.18,1.99,.31,4.25,.31,6.38h.04v103.97c-.01,12.36,5.14,24.17,14.22,32.56l1.33,1.24h-64.37l1.33-1.24c9.09-8.39,14.26-20.19,14.26-32.56v-103.97h-.04c-.03-8.68-.92-17.33-2.66-25.83-1.04-5.68-2.69-11.24-4.92-16.57-4.97-12.5-17.36-20.43-30.79-19.71v-6.65c8.77-.02,17.5,1.22,25.92,3.68,6.97,2.08,13.59,5.2,19.62,9.26,7.11,4.91,12.96,11.42,17.1,19,3.14,5.63,5.42,11.69,6.78,17.99,3.26-6.99,7.16-13.66,11.65-19.94,6.93-10.19,16.92-17.9,28.53-22.02,10.14-3.47,21.17-3.3,31.19,.49,1.7,.57,3.38,1.24,5.01,1.99l4.65,2.57c1.74,.93,3.02,2.53,3.54,4.43,.22,.66,.36,1.34,.4,2.04Z"
                    fill="currentColor" />
                <path
                    d="M1583.22,332.27l-.98,3.17c-.17,.53-17.05,52.12-89.71,53.67v.06h-6.65v-.11c-2.07-.07-4.12-.21-6.15-.45-9.83-.98-19.48-3.2-28.75-6.61-9.75-3.48-18.94-8.34-27.3-14.43-9.94-7.14-18.28-16.27-24.5-26.81-19.04-33.31-19.04-74.2,0-107.51,6.22-10.54,14.57-19.66,24.5-26.8,8.36-6.1,17.55-10.96,27.3-14.44,9.25-3.41,18.91-5.63,28.73-6.62,3.15-.37,6.32-.56,9.49-.56h3.31v.07c12.57,.47,24.97,3.06,36.68,7.66,23.21,8.8,41.18,27.65,48.86,51.26,.62,1.9,1.19,3.85,1.68,5.84,.09,.26,.13,.53,.13,.8h-156.07c-3.64,11.84-5.56,24.14-5.71,36.52,.14,13.98,2.57,27.85,7.2,41.05,3.1,8.98,7.3,17.54,12.52,25.48,4.66,7.43,10.78,13.84,18,18.82,8.27,5.57,17.83,8.96,27.77,9.84,1.86,.14,3.7,.32,5.59,.32h.62c69.89-.28,85.44-47.06,86.06-49.06l1-3.16,6.37,1.97Zm-145.47-111.73c-4.76,7.3-8.67,15.12-11.65,23.31h122.3c-.83-6.01-2.63-11.85-5.36-17.28-4.61-9.23-11.37-17.22-19.71-23.3-9.8-7.4-21.68-11.52-33.96-11.78h-.32l-.61,.04c-11.74,.1-23.19,3.67-32.9,10.26-7.14,4.98-13.2,11.36-17.8,18.75h0Z"
                    fill="currentColor" />
                <g>
                    <path
                        d="M552.68,159.13c0,9.17-7.44,16.61-16.61,16.61s-16.61-7.44-16.61-16.61,7.44-16.61,16.61-16.61,16.61,7.44,16.61,16.61Zm.37,279.87c-.01-34.66-.36-188.22-.37-222.88l.04-.18c1.89-9.07-5.03-17.58-14.29-17.58h-4.72c-9.27,0-16.18,8.51-14.29,17.58l.04,.18,.35,222.87c-.13,9.4,1.49,18.72,4.76,27.48,8.79-7.12,17.79-14.67,28.45-21.64-.05-2.7,.03-4.72,.03-5.83Zm-66.1,51.36c-25.49,9.89-66.39,12.23-132.19-25.92,15.6,31.2,34.89,40.72,44.07,44.07,34.29,12.52,73.51-7.81,99.3-23.37-3.55,1.94-7.25,3.7-11.18,5.22Zm11.18-5.22c3.33-1.82,6.53-3.81,9.64-5.93-2.94,1.83-6.17,3.83-9.64,5.93Zm26.44-18.67c-5.52,4.47-10.95,8.76-16.66,12.65,6.6-4.11,12.15-8,17.04-11.64-.13-.34-.26-.67-.38-1.01Z"
                        fill="currentColor" />
                    <path
                        d="M671.2,469.63c-1.44,16.07-12.58,26.12-16.03,29.24-2.43,1.99-5.99,4.59-10.63,6.98-10.95,5.63-20.83,6.42-27.38,6.88-10.51,.73-18.25-.62-27.2-2.19-12.23-2.14-21.08-5.23-24.46-6.47-8.55-3.13-13.54-5.06-19.61-9.25-7.11-4.92-12.97-11.44-17.12-19.03-1.45-2.7-2.72-5.48-3.83-8.32,11.2-8.34,18.98-15.44,28.1-21.11,.15,4.75,.74,11.2,2.66,18.47,1.22,4.61,3.18,12.12,8.05,19.79,11.06,17.41,29.28,23.37,34.7,25.05,7.63,2.37,14.27,2.95,18.71,3.05,3.43-.18,14.01-1.19,23.48-9.39,1.38-1.19,12.32-10.96,13.27-26.81,1.29-21.38-16.74-35.01-18.46-36.26-17.93-13.11-40.86-7.93-56.71-4.35-9.77,2.21-18.29,6.35-18.29,6.35-2.62,1.27-5.07,2.63-7.42,4.09-.02-.54-.03-1.05-.03-1.54,12.83-8.4,28.07-15.98,48.21-20.99,16-3.98,31.65-5.49,45.79,2.59,14.34,8.19,25.78,25.46,24.19,43.2Z"
                        fill="currentColor" />
                </g>
                <g>
                    <path
                        d="M207.96,9.16l-4.07,3.07c-17.26,13.02-30.09,28.5-38.15,46-.93,2.03-1.81,4.11-2.61,6.17l-.7,1.84-1.96,.04c-9.05,.16-18.17,.9-27.11,2.19l-3.21,.46-.12-3.24c-1.18-31.09,5.37-50.71,20.02-59.97C155.83,2.08,162.78,.15,170.7,0c9.65-.17,20.6,2.25,32.55,7.2l4.72,1.95Z"
                        fill="currentColor" />
                    <path
                        d="M189.37,402.01c-1.66,5.54-3.87,11.05-3.87,11.05-1.81,4.52-3.93,9.02-6.27,13.37l-.77,1.43-1.62,.1c-3.94,.24-7.93,.35-11.87,.32-32.63-.24-64.22-9.7-91.36-27.36-27.2-17.69-48.2-42.49-60.73-71.73-29.41-68.63-7.16-150.74,52.9-195.23,.54-.4,1.09-.8,1.63-1.19,.15-.11,.7-.5,.7-.5l1.49-1.05,1.08-.74,.77-.53c.61-.4,1.22-.82,1.83-1.21l.84-.55,.86-.56c.41-.26,.83-.53,1.25-.79,.48-.3,.91-.56,1.35-.83,.28-.17,.57-.35,.87-.53,15.42-9.27,32.2-15.76,49.87-19.29,1.79-.36,3.46,.99,3.49,2.81h0c.05,2.79,.12,5.74,.21,8.78,.31,10.44,.86,21.09,1.64,31.65h0c.11,1.47-.9,2.79-2.35,3.08h0c-10.38,2.05-20.15,5.56-29.05,10.45-24.51,13.44-42.61,37.53-51,67.84-8.78,31.74-5.68,66.1,8.11,89.64,7.21,12.33,26.12,35.67,46.1,35.81,1.51,.01,3.02-.12,4.49-.38,17.92-3.16,27.27-24.47,30.02-30.74,7.07-16.14,6.56-30.3,5.81-46.31-1.13-23.93-6.12-30.93-9.5-60.39-1.67-14.59-2.02-26.58-2.07-34.22,6.53-.89,13.06-1.78,19.59-2.67-3.64,15.19-4.23,28.05-4.03,37.15,.1,4.45,.63,14.23,3.48,26.99,4.55,20.35,11.44,32,17.97,46.18,27.26,59.25,20.43,102.51,18.15,110.14Z"
                        fill="currentColor" />
                    <path
                        d="M347.12,262.4c.18,22.95-3.72,40.86-5.4,47.5l-.56,2.23-2.3-.03c-24.44-.23-43.85-2.07-59.34-5.61-21.98-5.02-35.21-13.56-39.31-25.38-5.08-14.59,5.49-28.6,15.71-42.16,9.95-13.18,20.23-26.83,16.89-41.02-2.85-12.13-15.69-25.08-34.37-34.63-19.88-10.18-44.18-15.47-66.67-14.52-4.04,.17-8.08,.54-11.99,1.1h0c-1.78,.26-3.37-1.14-3.34-2.94h0c.07-3.84,.19-7.72,.36-11.53,.44-10.08,1.24-20.31,2.37-30.37h0c.15-1.34,1.19-2.4,2.52-2.58h0c4.67-.61,9.44-1.01,14.18-1.21,53.66-2.25,106.8,21.61,138.67,62.28l.26,.33c3.56,4.57,6.88,9.39,9.85,14.32,.11,.18,.23,.38,.35,.58,14.45,24.19,21.89,52.33,22.13,83.63Z"
                        fill="currentColor" />
                </g>
            </g>
        </g>
    </g>
</svg>