<svg width="25" height="24" viewBox="0 0 25 24" fill="currentColor" xmlns="http://www.w3.org/2000/svg">
    <path
        d="M4.5 8C4.5 5.87827 5.34285 3.84344 6.84315 2.34315C8.34344 0.842855 10.3783 0 12.5 0C14.6217 0 16.6566 0.842855 18.1569 2.34315C19.6571 3.84344 20.5 5.87827 20.5 8V12.697L22.5 15.697V20H16.889C16.6615 20.9937 16.1036 21.8808 15.3064 22.5162C14.5091 23.1515 13.5199 23.4975 12.5005 23.4975C11.4811 23.4975 10.4919 23.1515 9.69465 22.5162C8.89744 21.8808 8.33946 20.9937 8.112 20H2.5V15.697L4.5 12.697V8ZM10.208 20C10.4024 20.4462 10.7228 20.826 11.1299 21.0928C11.5371 21.3595 12.0133 21.5016 12.5 21.5016C12.9867 21.5016 13.4629 21.3595 13.8701 21.0928C14.2772 20.826 14.5976 20.4462 14.792 20H10.208ZM12.5 2C10.9087 2 9.38258 2.63214 8.25736 3.75736C7.13214 4.88258 6.5 6.4087 6.5 8V13.303L4.5 16.303V18H20.5V16.303L18.5 13.303V8C18.5 6.4087 17.8679 4.88258 16.7426 3.75736C15.6174 2.63214 14.0913 2 12.5 2Z"
        fill="currentColor" />
</svg>