<svg width="14" height="14" viewBox="0 0 14 14" fill="none" xmlns="http://www.w3.org/2000/svg">
<path d="M2.63791 4.08326H4.0835C4.40566 4.08326 4.66683 4.34442 4.66683 4.66659C4.66683 4.98875 4.40566 5.24992 4.0835 5.24992H1.75016C1.10583 5.24992 0.583496 4.72759 0.583496 4.08326V1.74992C0.583496 1.42776 0.844663 1.16659 1.16683 1.16659C1.489 1.16659 1.75016 1.42776 1.75016 1.74992V3.31058C2.41639 2.36252 3.33017 1.60823 4.39839 1.1344C5.70949 0.552831 7.17764 0.427304 8.56844 0.777856C9.95924 1.12841 11.1925 1.93482 12.0713 3.06836C12.8305 4.04767 13.2874 5.22236 13.3931 6.44878C13.4208 6.76975 13.153 7.03016 12.8308 7.02858C12.5087 7.027 12.2496 6.76374 12.2154 6.44339C12.1125 5.47937 11.7438 4.55856 11.1452 3.78636C10.4269 2.85984 9.41883 2.2007 8.28203 1.91417C7.14523 1.62763 5.9452 1.73024 4.87354 2.20559C3.98038 2.60177 3.21931 3.23783 2.6718 4.03792C2.66108 4.05359 2.64977 4.0687 2.63791 4.08326Z" fill="white"/>
<path d="M12.2502 10.6893C11.5839 11.6373 10.6702 12.3916 9.60193 12.8654C8.29083 13.447 6.82268 13.5725 5.43188 13.222C4.04109 12.8714 2.80784 12.065 1.92903 10.9315C1.16978 9.95217 0.712917 8.77748 0.607202 7.55107C0.579535 7.23009 0.847329 6.96968 1.16949 6.97126C1.49165 6.97285 1.75077 7.2361 1.78495 7.55645C1.88781 8.52047 2.25648 9.44128 2.85515 10.2135C3.57346 11.14 4.58149 11.7991 5.71829 12.0857C6.85509 12.3722 8.05512 12.2696 9.12678 11.7943C10.0199 11.3981 10.781 10.762 11.3285 9.96192C11.3392 9.94626 11.3506 9.93114 11.3624 9.91659H9.91683C9.59466 9.91659 9.3335 9.65542 9.3335 9.33325C9.3335 9.01109 9.59466 8.74992 9.91683 8.74992H12.2502C12.8945 8.74992 13.4168 9.27226 13.4168 9.91659V12.2499C13.4168 12.5721 13.1557 12.8333 12.8335 12.8333C12.5113 12.8333 12.2502 12.5721 12.2502 12.2499V10.6893Z" fill="white"/>
</svg>
