<svg width="29" height="29" viewBox="0 0 29 29" fill="none" xmlns="http://www.w3.org/2000/svg">
<path fill-rule="evenodd" clip-rule="evenodd" d="M3.47275 13.192C3.55737 7.36283 8.34532 2.6736 14.2251 2.6736C16.0659 2.67052 17.8768 3.13965 19.4846 4.03614C21.0924 4.93264 22.4434 6.22653 23.4084 7.79414C23.5239 7.99292 23.5571 8.22892 23.501 8.45184C23.4449 8.67476 23.304 8.86695 23.1082 8.98743C22.9125 9.10792 22.6774 9.14717 22.4531 9.09682C22.2288 9.04646 22.0331 8.91049 21.9076 8.71788C21.1003 7.40662 19.97 6.32443 18.625 5.57483C17.2799 4.82522 15.7649 4.43327 14.2251 4.43647C9.30667 4.43647 5.32259 8.34768 5.23679 13.1897L5.70689 12.7231C5.87287 12.5584 6.09749 12.4663 6.33133 12.4672C6.56518 12.4681 6.7891 12.5618 6.95383 12.7278C7.11856 12.8938 7.21061 13.1184 7.20972 13.3523C7.20884 13.5861 7.1151 13.81 6.94913 13.9748L4.97471 15.9327C4.80964 16.0963 4.58662 16.1882 4.35418 16.1882C4.12175 16.1882 3.89873 16.0963 3.73366 15.9327L1.75924 13.9748C1.67698 13.8933 1.61158 13.7964 1.56676 13.6896C1.52195 13.5828 1.4986 13.4683 1.49806 13.3525C1.49751 13.2367 1.51978 13.122 1.56358 13.0148C1.60739 12.9076 1.67188 12.8101 1.75337 12.7278C1.83486 12.6456 1.93175 12.5802 2.03852 12.5353C2.14528 12.4905 2.25983 12.4672 2.37562 12.4666C2.49141 12.4661 2.60617 12.4884 2.71335 12.5322C2.82054 12.576 2.91804 12.6405 3.0003 12.7219L3.47275 13.192ZM23.2827 12.3306C23.4477 12.1673 23.6705 12.0757 23.9026 12.0757C24.1348 12.0757 24.3575 12.1673 24.5226 12.3306L26.504 14.2885C26.5886 14.3694 26.6562 14.4662 26.7029 14.5734C26.7496 14.6807 26.7745 14.7961 26.7762 14.913C26.7779 15.03 26.7563 15.1461 26.7126 15.2546C26.669 15.3631 26.6041 15.4618 26.5219 15.545C26.4398 15.6283 26.3418 15.6943 26.2339 15.7393C26.1259 15.7842 26.0101 15.8073 25.8931 15.807C25.7762 15.8068 25.6604 15.7833 25.5526 15.7379C25.4448 15.6925 25.3472 15.6261 25.2653 15.5425L24.7835 15.0666C24.7012 20.9016 19.8933 25.5909 13.9947 25.5909C12.1493 25.5953 10.3334 25.1272 8.7201 24.2311C7.10681 23.3349 5.74984 22.0406 4.77845 20.4715C4.71764 20.373 4.67684 20.2634 4.65837 20.1491C4.6399 20.0348 4.64413 19.918 4.67081 19.8053C4.69749 19.6926 4.74611 19.5863 4.81388 19.4924C4.88165 19.3985 4.96725 19.3189 5.0658 19.2581C5.16434 19.1973 5.27389 19.1565 5.38821 19.138C5.50252 19.1195 5.61935 19.1237 5.73203 19.1504C5.84471 19.1771 5.95103 19.2257 6.04492 19.2935C6.13881 19.3613 6.21843 19.4469 6.27924 19.5454C7.09262 20.8586 8.22875 21.9417 9.57935 22.6913C10.9299 23.441 12.45 23.8323 13.9947 23.828C18.9378 23.828 22.9383 19.9109 23.0206 15.0689L22.5411 15.5425C22.3748 15.707 22.15 15.7986 21.9162 15.7973C21.6823 15.7959 21.4586 15.7018 21.2942 15.5355C21.1297 15.3692 21.0381 15.1444 21.0394 14.9106C21.0408 14.6767 21.1349 14.453 21.3012 14.2885L23.2827 12.3306Z" fill="#ED7534"/>
<g clip-path="url(#clip0_469_234)">
<path d="M13.9268 11.2128C13.2556 11.2128 12.7115 10.6687 12.7115 9.99754C12.7115 9.32634 13.2556 8.78223 13.9268 8.78223C14.598 8.78223 15.1421 9.32634 15.1421 9.99754C15.1421 10.6687 14.598 11.2128 13.9268 11.2128Z" fill="#ED7534"/>
<path d="M9.99885 11.56H17.855C18.0104 11.56 18.1594 11.6217 18.2693 11.7316C18.3792 11.8415 18.4409 11.9905 18.4409 12.1459C18.4409 12.3013 18.3792 12.4504 18.2693 12.5603C18.1594 12.6701 18.0104 12.7319 17.855 12.7319H15.644C15.494 12.7319 15.3184 12.7989 15.219 13.0574C15.1029 13.3576 15.1598 13.9372 15.2314 14.3862L15.3252 14.9168C15.325 14.9182 15.3251 14.9196 15.3256 14.9209C15.326 14.9223 15.3268 14.9234 15.3278 14.9244L16.0787 19.1956C16.1059 19.3506 16.0706 19.5102 15.9805 19.6392C15.8904 19.7683 15.7529 19.8565 15.598 19.8844C15.5214 19.898 15.4428 19.8962 15.367 19.8791C15.2911 19.8621 15.2193 19.8301 15.1559 19.7851C15.0925 19.7401 15.0386 19.6829 14.9974 19.617C14.9563 19.551 14.9286 19.4774 14.9161 19.4007L14.3972 16.4319C14.3972 16.4319 14.2307 15.7268 13.9269 15.7268C13.6181 15.7268 13.4551 16.4319 13.4551 16.4319L12.9362 19.4033C12.9237 19.4807 12.8958 19.5549 12.8543 19.6215C12.8128 19.688 12.7585 19.7457 12.6945 19.791C12.6304 19.8364 12.558 19.8686 12.4815 19.8857C12.4049 19.9028 12.3257 19.9044 12.2485 19.8906C12.1713 19.8768 12.0976 19.8477 12.0317 19.8051C11.9658 19.7625 11.9091 19.7072 11.8648 19.6425C11.8205 19.5777 11.7895 19.5048 11.7737 19.428C11.7578 19.3512 11.7575 19.2719 11.7726 19.1949L12.5237 14.9238C12.5235 14.9224 12.5236 14.921 12.524 14.9197C12.5245 14.9184 12.5251 14.9172 12.526 14.9162L12.62 14.3856C12.6916 13.9366 12.7485 13.3569 12.6324 13.0568C12.5334 12.7989 12.3522 12.7312 12.214 12.7312H9.99885C9.84345 12.7312 9.69441 12.6695 9.58452 12.5596C9.47463 12.4497 9.4129 12.3007 9.4129 12.1453C9.4129 11.9899 9.47463 11.8408 9.58452 11.7309C9.69441 11.6211 9.84345 11.5593 9.99885 11.5593V11.56Z" fill="#ED7534"/>
</g>
<defs>
<clipPath id="clip0_469_234">
<rect width="11.1114" height="11.1114" fill="white" transform="matrix(-1 0 0 1 19.4824 8.78223)"/>
</clipPath>
</defs>
</svg>
