<svg width="29" height="28" viewBox="0 0 29 28" fill="currentColor" xmlns="http://www.w3.org/2000/svg">
    <g id="ic:outline-shopping-bag">
        <path id="Vector"
            d="M21.5003 7.00004H19.167C19.167 4.42171 17.0787 2.33337 14.5003 2.33337C11.922 2.33337 9.83366 4.42171 9.83366 7.00004H7.50033C6.21699 7.00004 5.16699 8.05004 5.16699 9.33337V23.3334C5.16699 24.6167 6.21699 25.6667 7.50033 25.6667H21.5003C22.7837 25.6667 23.8337 24.6167 23.8337 23.3334V9.33337C23.8337 8.05004 22.7837 7.00004 21.5003 7.00004ZM14.5003 4.66671C15.7837 4.66671 16.8337 5.71671 16.8337 7.00004H12.167C12.167 5.71671 13.217 4.66671 14.5003 4.66671ZM21.5003 23.3334H7.50033V9.33337H9.83366V11.6667C9.83366 12.3084 10.3587 12.8334 11.0003 12.8334C11.642 12.8334 12.167 12.3084 12.167 11.6667V9.33337H16.8337V11.6667C16.8337 12.3084 17.3587 12.8334 18.0003 12.8334C18.642 12.8334 19.167 12.3084 19.167 11.6667V9.33337H21.5003V23.3334Z"
            fill="currentColor" />
    </g>
</svg>