<svg width="28" height="28" viewBox="0 0 28 28" fill="currentColor"
    xmlns="http://www.w3.org/2000/svg">
    <path fill-rule="evenodd" clip-rule="evenodd"
        d="M14 2.33325C20.2134 2.33325 25.25 7.55642 25.25 13.9999C25.2539 16.6924 24.356 19.3028 22.7098 21.3849L22.7323 21.4106L22.5838 21.5413C21.5287 22.8352 20.2139 23.8748 18.7313 24.5873C17.2488 25.2998 15.6341 25.6682 14 25.6666C10.6813 25.6666 7.70001 24.1768 5.64126 21.8084L5.41626 21.5401L5.26776 21.4118L5.29026 21.3838C3.64428 19.302 2.7464 16.692 2.75001 13.9999C2.75001 7.55642 7.78664 2.33325 14 2.33325ZM14 19.8333C11.9075 19.8333 10.0164 20.5239 8.60789 21.4736C10.1633 22.6834 12.0557 23.336 14 23.3333C15.9443 23.336 17.8367 22.6834 19.3921 21.4736C17.7826 20.4042 15.9115 19.835 14 19.8333ZM14 4.66659C12.3063 4.66654 10.647 5.16209 9.21282 6.09628C7.7786 7.03047 6.62767 8.36538 5.89232 9.94759C5.15696 11.5298 4.86704 13.2951 5.05587 15.0405C5.2447 16.7859 5.90461 18.4407 6.95976 19.8146C8.78339 18.4578 11.2719 17.4999 14 17.4999C16.7281 17.4999 19.2166 18.4578 21.0403 19.8146C22.0954 18.4407 22.7553 16.7859 22.9442 15.0405C23.133 13.2951 22.8431 11.5298 22.1077 9.94759C21.3724 8.36538 20.2214 7.03047 18.7872 6.09628C17.353 5.16209 15.6937 4.66654 14 4.66659ZM14 6.99992C15.1935 6.99992 16.3381 7.49158 17.182 8.36675C18.0259 9.24192 18.5 10.4289 18.5 11.6666C18.5 12.9043 18.0259 14.0912 17.182 14.9664C16.3381 15.8416 15.1935 16.3333 14 16.3333C12.8065 16.3333 11.6619 15.8416 10.818 14.9664C9.97412 14.0912 9.50001 12.9043 9.50001 11.6666C9.50001 10.4289 9.97412 9.24192 10.818 8.36675C11.6619 7.49158 12.8065 6.99992 14 6.99992ZM14 9.33325C13.4033 9.33325 12.831 9.57909 12.409 10.0167C11.9871 10.4543 11.75 11.0477 11.75 11.6666C11.75 12.2854 11.9871 12.8789 12.409 13.3165C12.831 13.7541 13.4033 13.9999 14 13.9999C14.5967 13.9999 15.169 13.7541 15.591 13.3165C16.013 12.8789 16.25 12.2854 16.25 11.6666C16.25 11.0477 16.013 10.4543 15.591 10.0167C15.169 9.57909 14.5967 9.33325 14 9.33325Z"
        fill="currentColor" />
</svg>