<svg width="24" height="20" viewBox="0 0 24 20" fill="none" xmlns="http://www.w3.org/2000/svg">
<path opacity="0.2" d="M18.2732 6.64781V13.6993L12.1031 17.225L5.93311 13.6993V6.64781L12.1031 3.12207L18.2732 6.64781Z" fill="#ED7534"/>
<path d="M23.5618 1.35922V5.76639C23.5618 6.00016 23.4689 6.22435 23.3036 6.38965C23.1383 6.55496 22.9141 6.64782 22.6804 6.64782C22.4466 6.64782 22.2224 6.55496 22.0571 6.38965C21.8918 6.22435 21.7989 6.00016 21.7989 5.76639V2.24065H18.2732C18.0394 2.24065 17.8152 2.14779 17.6499 1.98248C17.4846 1.81718 17.3918 1.59299 17.3918 1.35922C17.3918 1.12545 17.4846 0.90125 17.6499 0.735949C17.8152 0.570648 18.0394 0.477783 18.2732 0.477783H22.6804C22.9141 0.477783 23.1383 0.570648 23.3036 0.735949C23.4689 0.90125 23.5618 1.12545 23.5618 1.35922ZM5.93313 18.1065H2.4074V14.5807C2.4074 14.347 2.31453 14.1228 2.14923 13.9575C1.98393 13.7922 1.75974 13.6993 1.52597 13.6993C1.29219 13.6993 1.068 13.7922 0.902697 13.9575C0.737396 14.1228 0.644531 14.347 0.644531 14.5807V18.9879C0.644531 19.2217 0.737396 19.4459 0.902697 19.6112C1.068 19.7765 1.29219 19.8693 1.52597 19.8693H5.93313C6.1669 19.8693 6.3911 19.7765 6.5564 19.6112C6.7217 19.4459 6.81457 19.2217 6.81457 18.9879C6.81457 18.7541 6.7217 18.5299 6.5564 18.3646C6.3911 18.1993 6.1669 18.1065 5.93313 18.1065ZM22.6804 13.6993C22.4466 13.6993 22.2224 13.7922 22.0571 13.9575C21.8918 14.1228 21.7989 14.347 21.7989 14.5807V18.1065H18.2732C18.0394 18.1065 17.8152 18.1993 17.6499 18.3646C17.4846 18.5299 17.3918 18.7541 17.3918 18.9879C17.3918 19.2217 17.4846 19.4459 17.6499 19.6112C17.8152 19.7765 18.0394 19.8693 18.2732 19.8693H22.6804C22.9141 19.8693 23.1383 19.7765 23.3036 19.6112C23.4689 19.4459 23.5618 19.2217 23.5618 18.9879V14.5807C23.5618 14.347 23.4689 14.1228 23.3036 13.9575C23.1383 13.7922 22.9141 13.6993 22.6804 13.6993ZM1.52597 6.64782C1.75974 6.64782 1.98393 6.55496 2.14923 6.38965C2.31453 6.22435 2.4074 6.00016 2.4074 5.76639V2.24065H5.93313C6.1669 2.24065 6.3911 2.14779 6.5564 1.98248C6.7217 1.81718 6.81457 1.59299 6.81457 1.35922C6.81457 1.12545 6.7217 0.90125 6.5564 0.735949C6.3911 0.570648 6.1669 0.477783 5.93313 0.477783H1.52597C1.29219 0.477783 1.068 0.570648 0.902697 0.735949C0.737396 0.90125 0.644531 1.12545 0.644531 1.35922V5.76639C0.644531 6.00016 0.737396 6.22435 0.902697 6.38965C1.068 6.55496 1.29219 6.64782 1.52597 6.64782ZM18.7139 14.4705L12.5439 17.9963C12.4107 18.0724 12.2599 18.1125 12.1065 18.1125C11.953 18.1125 11.8023 18.0724 11.6691 17.9963L5.49242 14.4705C5.35725 14.3925 5.24523 14.28 5.1678 14.1445C5.09037 14.009 5.0503 13.8554 5.0517 13.6993V6.64782C5.0503 6.49176 5.09037 6.33812 5.1678 6.20262C5.24523 6.06711 5.35725 5.95459 5.49242 5.87657L11.6625 2.35083C11.7957 2.27469 11.9464 2.23464 12.0999 2.23464C12.2533 2.23464 12.4041 2.27469 12.5373 2.35083L18.7073 5.87657C18.8425 5.95459 18.9545 6.06711 19.0319 6.20262C19.1094 6.33812 19.1494 6.49176 19.148 6.64782V13.6993C19.1501 13.8547 19.111 14.0079 19.0348 14.1434C18.9586 14.2788 18.8479 14.3917 18.7139 14.4705ZM7.70922 6.64782L12.1032 9.1588L16.4971 6.64782L12.1032 4.13684L7.70922 6.64782ZM6.81457 13.1881L11.2217 15.7057V10.6848L6.81457 8.16719V13.1881ZM17.3918 13.1881V8.16719L12.9846 10.6848V15.7057L17.3918 13.1881Z" fill="#ED7534"/>
</svg>
