<?xml version="1.0" encoding="utf-8"?>
<!-- Generator: Adobe Illustrator 27.3.1, SVG Export Plug-In . SVG Version: 6.00 Build 0)  -->
<svg version="1.1" id="Layer_1" xmlns="http://www.w3.org/2000/svg" xmlns:xlink="http://www.w3.org/1999/xlink" x="0px" y="0px"
	 viewBox="0 0 16.6 16.6" style="enable-background:new 0 0 16.6 16.6;" xml:space="preserve">
<path d="M4.2,5.5c0.7,0,1.4-0.3,2-0.8s0.8-1.2,0.8-2c0-0.7-0.3-1.4-0.8-2C5.6,0.3,4.9,0,4.2,0s-1.4,0.3-2,0.8C1.7,1.3,1.4,2,1.4,2.8
	c0,0.7,0.3,1.4,0.8,2S3.4,5.5,4.2,5.5z M4.2,4.2c-0.4,0-0.7-0.1-1-0.4c-0.3-0.3-0.4-0.6-0.4-1s0.1-0.7,0.4-1c0.3-0.3,0.6-0.4,1-0.4
	s0.7,0.1,1,0.4c0.3,0.3,0.4,0.6,0.4,1s-0.1,0.7-0.4,1C4.9,4,4.5,4.2,4.2,4.2z M0,8.1c0-0.9,0.7-1.6,1.6-1.6h5.1
	c0.9,0,1.6,0.7,1.6,1.6v4.4c0,1.1-0.4,2.2-1.2,2.9c-0.8,0.8-1.8,1.2-2.9,1.2S2,16.2,1.2,15.4C0.4,14.6,0,13.6,0,12.5V8.1z M1.6,7.8
	c-0.1,0-0.1,0-0.2,0.1c0,0-0.1,0.1-0.1,0.2v4.4c0,0.7,0.3,1.4,0.8,2c0.5,0.5,1.2,0.8,2,0.8s1.4-0.3,2-0.8c0.5-0.5,0.8-1.2,0.8-2V8.1
	c0-0.1,0-0.1-0.1-0.2S6.7,7.8,6.7,7.8H1.6z M6.9,5.2c0.4,0.2,0.9,0.4,1.4,0.4c0.5,0,1-0.1,1.4-0.4c0.4-0.2,0.8-0.6,1-1
	c0.2-0.4,0.4-0.9,0.4-1.4s-0.1-1-0.4-1.4c-0.2-0.4-0.6-0.8-1-1C9.3,0.1,8.8,0,8.3,0s-1,0.1-1.4,0.4c0.3,0.3,0.5,0.8,0.7,1.2
	c0.2-0.1,0.4-0.2,0.7-0.2c0.2,0,0.5,0.1,0.7,0.2c0.2,0.1,0.4,0.3,0.5,0.5c0.1,0.2,0.2,0.4,0.2,0.7S9.6,3.2,9.5,3.5
	C9.4,3.7,9.2,3.8,9,4C8.8,4.1,8.6,4.1,8.3,4.2C8.1,4.2,7.8,4.1,7.6,4C7.5,4.4,7.2,4.8,6.9,5.2z M7.2,16.5c0.6,0.2,1.3,0.2,1.9,0.1
	c0.6-0.1,1.2-0.4,1.7-0.8c0.5-0.4,0.9-0.9,1.2-1.5c0.3-0.6,0.4-1.2,0.4-1.8V8.1c0-0.4-0.2-0.8-0.5-1.1c-0.3-0.3-0.7-0.5-1.1-0.5H8.6
	C9,6.8,9.2,7.3,9.2,7.8h1.6c0.1,0,0.1,0,0.2,0.1c0,0,0.1,0.1,0.1,0.2v4.4c0,0.7-0.3,1.4-0.8,1.9c-0.5,0.5-1.2,0.8-1.9,0.8
	C8.1,15.7,7.7,16.1,7.2,16.5z M11.1,5.2c0.4,0.2,0.9,0.4,1.4,0.4c0.5,0,1-0.1,1.4-0.4c0.4-0.2,0.8-0.6,1-1c0.2-0.4,0.4-0.9,0.4-1.4
	s-0.1-1-0.4-1.4c-0.2-0.4-0.6-0.8-1-1S13,0,12.5,0c-0.5,0-1,0.1-1.4,0.4c0.3,0.3,0.5,0.8,0.7,1.2c0.2-0.1,0.4-0.2,0.7-0.2
	c0.2,0,0.5,0.1,0.7,0.2c0.2,0.1,0.4,0.3,0.5,0.5c0.1,0.2,0.2,0.4,0.2,0.7s-0.1,0.5-0.2,0.7c-0.1,0.2-0.3,0.4-0.5,0.5
	c-0.2,0.1-0.4,0.2-0.7,0.2c-0.2,0-0.5-0.1-0.7-0.2C11.6,4.4,11.4,4.8,11.1,5.2z M11.4,16.5c0.6,0.2,1.3,0.2,1.9,0.1
	c0.6-0.1,1.2-0.4,1.7-0.8c0.5-0.4,0.9-0.9,1.2-1.5c0.3-0.6,0.4-1.2,0.4-1.8V8.1c0-0.4-0.2-0.8-0.5-1.1c-0.3-0.3-0.7-0.5-1.1-0.5
	h-2.2c0.3,0.4,0.5,0.9,0.6,1.4H15c0.1,0,0.1,0,0.2,0.1c0,0,0.1,0.1,0.1,0.2v4.4c0,0.7-0.3,1.4-0.8,1.9c-0.5,0.5-1.2,0.8-1.9,0.8
	C12.2,15.7,11.8,16.1,11.4,16.5z"/>
</svg>
