<svg xmlns="http://www.w3.org/2000/svg" width="57" height="57" fill="currentcolor">
	<path fill="currentcolor" d="M45.766 13.237a40.9 40.9 0 0 0-10.141-3.103.24.24 0 0 0-.167.07 32 32 0 0 0-1.258 2.543 39 39 0 0 0-11.4 0 23 23 0 0 0-1.283-2.543c-.024-.047-.095-.07-.166-.07a41.2 41.2 0 0 0-10.141 3.103c-.024 0-.048.024-.072.047-6.46 9.497-8.24 18.737-7.362 27.883 0 .047.024.093.071.117 4.275 3.08 8.384 4.947 12.445 6.183.071.023.142 0 .166-.047A30 30 0 0 0 19 43.36c.047-.093 0-.186-.096-.21a29.5 29.5 0 0 1-3.895-1.82c-.095-.046-.095-.186-.023-.256.261-.187.522-.397.784-.584a.15.15 0 0 1 .166-.023c8.17 3.663 16.981 3.663 25.056 0a.15.15 0 0 1 .166.023c.261.21.523.397.784.607.095.07.095.21-.024.257-1.235.723-2.541 1.306-3.895 1.82-.095.023-.119.14-.095.21a36 36 0 0 0 2.541 4.06c.072.023.143.046.214.023 4.085-1.236 8.194-3.103 12.469-6.183a.13.13 0 0 0 .071-.117c1.045-10.57-1.733-19.74-7.362-27.883-.024-.024-.048-.047-.095-.047M20.235 35.591c-2.447 0-4.49-2.217-4.49-4.947s1.996-4.947 4.49-4.947c2.517 0 4.512 2.24 4.488 4.947 0 2.73-1.995 4.947-4.488 4.947m16.553 0c-2.446 0-4.488-2.217-4.488-4.947s1.995-4.947 4.488-4.947c2.518 0 4.513 2.24 4.489 4.947 0 2.73-1.971 4.947-4.489 4.947" />
</svg>
